<mxfile host="app.diagrams.net" modified="2023-04-27T16:36:23.726Z" agent="Mozilla/5.0 (X11; Ubuntu; Linux x86_64; rv:109.0) Gecko/20100101 Firefox/112.0" etag="Ar3DAri7ecxtGfNxWH5c" version="21.2.3" type="device">
  <diagram name="Page-1" id="iLLyLQNC6ohgqp2_bx7Z">
    <mxGraphModel dx="1941" dy="615" grid="1" gridSize="5" guides="1" tooltips="1" connect="1" arrows="1" fold="1" page="1" pageScale="1" pageWidth="827" pageHeight="1169" background="#1A1A1A" math="0" shadow="0">
      <root>
        <mxCell id="0" />
        <mxCell id="1" parent="0" />
        <mxCell id="OhocnARGBNXMkphMfaer-10" style="edgeStyle=orthogonalEdgeStyle;rounded=0;orthogonalLoop=1;jettySize=auto;html=1;exitX=0;exitY=0.5;exitDx=0;exitDy=0;strokeColor=#E6E6E6;dashed=1;dashPattern=8 8;endArrow=none;endFill=0;" parent="1" source="sig-loadm" edge="1">
          <mxGeometry relative="1" as="geometry">
            <mxPoint x="60" y="79.85714285714283" as="targetPoint" />
          </mxGeometry>
        </mxCell>
        <mxCell id="OhocnARGBNXMkphMfaer-9" style="edgeStyle=orthogonalEdgeStyle;rounded=0;orthogonalLoop=1;jettySize=auto;html=1;exitX=0;exitY=0.5;exitDx=0;exitDy=0;strokeColor=#E6E6E6;dashed=1;dashPattern=8 8;endArrow=none;endFill=0;" parent="1" source="sig-loadar" edge="1">
          <mxGeometry relative="1" as="geometry">
            <mxPoint x="60" y="225" as="targetPoint" />
          </mxGeometry>
        </mxCell>
        <mxCell id="OhocnARGBNXMkphMfaer-8" style="edgeStyle=orthogonalEdgeStyle;rounded=0;orthogonalLoop=1;jettySize=auto;html=1;exitX=0;exitY=0.5;exitDx=0;exitDy=0;strokeColor=#E6E6E6;dashed=1;dashPattern=8 8;endArrow=none;endFill=0;" parent="1" source="sig-loadpc" edge="1">
          <mxGeometry relative="1" as="geometry">
            <mxPoint x="60" y="295.28571428571433" as="targetPoint" />
          </mxGeometry>
        </mxCell>
        <mxCell id="OhocnARGBNXMkphMfaer-7" style="edgeStyle=orthogonalEdgeStyle;rounded=0;orthogonalLoop=1;jettySize=auto;html=1;exitX=0;exitY=0.5;exitDx=0;exitDy=0;strokeColor=#E6E6E6;dashed=1;dashPattern=8 8;endArrow=none;endFill=0;" parent="1" source="sig-enpc" edge="1">
          <mxGeometry relative="1" as="geometry">
            <mxPoint x="60" y="325" as="targetPoint" />
          </mxGeometry>
        </mxCell>
        <mxCell id="OhocnARGBNXMkphMfaer-6" style="edgeStyle=orthogonalEdgeStyle;rounded=0;orthogonalLoop=1;jettySize=auto;html=1;exitX=0;exitY=0.5;exitDx=0;exitDy=0;strokeColor=#E6E6E6;dashed=1;dashPattern=8 8;endArrow=none;endFill=0;" parent="1" source="sig-loaddr" edge="1">
          <mxGeometry relative="1" as="geometry">
            <mxPoint x="60" y="365" as="targetPoint" />
          </mxGeometry>
        </mxCell>
        <mxCell id="OhocnARGBNXMkphMfaer-5" style="edgeStyle=orthogonalEdgeStyle;rounded=0;orthogonalLoop=1;jettySize=auto;html=1;exitX=0;exitY=0.5;exitDx=0;exitDy=0;entryX=0.643;entryY=0.107;entryDx=0;entryDy=0;entryPerimeter=0;strokeColor=#E6E6E6;dashed=1;dashPattern=8 8;" parent="1" source="1nYw9ThHLsexZ4AbJdqg-54" target="1nYw9ThHLsexZ4AbJdqg-90" edge="1">
          <mxGeometry relative="1" as="geometry">
            <Array as="points">
              <mxPoint x="60" y="405" />
            </Array>
          </mxGeometry>
        </mxCell>
        <mxCell id="OhocnARGBNXMkphMfaer-4" style="edgeStyle=orthogonalEdgeStyle;rounded=0;orthogonalLoop=1;jettySize=auto;html=1;exitX=0;exitY=0.5;exitDx=0;exitDy=0;entryX=0.643;entryY=0.964;entryDx=0;entryDy=0;entryPerimeter=0;strokeColor=#E6E6E6;dashed=1;dashPattern=8 8;endArrow=none;endFill=0;" parent="1" source="sig-loadinpr" target="1nYw9ThHLsexZ4AbJdqg-90" edge="1">
          <mxGeometry relative="1" as="geometry">
            <Array as="points">
              <mxPoint x="60" y="525" />
            </Array>
          </mxGeometry>
        </mxCell>
        <mxCell id="OhocnARGBNXMkphMfaer-3" style="edgeStyle=orthogonalEdgeStyle;rounded=0;orthogonalLoop=1;jettySize=auto;html=1;exitX=0;exitY=0.5;exitDx=0;exitDy=0;strokeColor=#E6E6E6;dashed=1;dashPattern=8 8;endArrow=none;endFill=0;" parent="1" source="sig-loadtr" edge="1">
          <mxGeometry relative="1" as="geometry">
            <mxPoint x="60" y="595.2857142857143" as="targetPoint" />
          </mxGeometry>
        </mxCell>
        <mxCell id="OhocnARGBNXMkphMfaer-2" style="edgeStyle=orthogonalEdgeStyle;rounded=0;orthogonalLoop=1;jettySize=auto;html=1;exitX=0;exitY=0.5;exitDx=0;exitDy=0;strokeColor=#E6E6E6;dashed=1;dashPattern=8 8;endArrow=none;endFill=0;" parent="1" source="sig-loadir" edge="1">
          <mxGeometry relative="1" as="geometry">
            <mxPoint x="60" y="665" as="targetPoint" />
          </mxGeometry>
        </mxCell>
        <mxCell id="OhocnARGBNXMkphMfaer-1" style="edgeStyle=orthogonalEdgeStyle;rounded=0;orthogonalLoop=1;jettySize=auto;html=1;exitX=0;exitY=0.5;exitDx=0;exitDy=0;endArrow=none;endFill=0;strokeColor=#E6E6E6;dashed=1;dashPattern=8 8;" parent="1" source="sig-loadoutr" edge="1">
          <mxGeometry relative="1" as="geometry">
            <mxPoint x="60" y="735.2857142857142" as="targetPoint" />
          </mxGeometry>
        </mxCell>
        <mxCell id="1nYw9ThHLsexZ4AbJdqg-443" value="" style="endArrow=none;dashed=1;html=1;rounded=0;strokeColor=#E6E6E6;" parent="1" edge="1">
          <mxGeometry width="50" height="50" relative="1" as="geometry">
            <mxPoint x="60" y="1265" as="sourcePoint" />
            <mxPoint x="60" y="48.529411764705884" as="targetPoint" />
          </mxGeometry>
        </mxCell>
        <mxCell id="1nYw9ThHLsexZ4AbJdqg-444" value="" style="endArrow=none;dashed=1;html=1;rounded=0;strokeColor=#E6E6E6;" parent="1" edge="1">
          <mxGeometry width="50" height="50" relative="1" as="geometry">
            <mxPoint x="40" y="1280" as="sourcePoint" />
            <mxPoint x="40" y="48.529411764705884" as="targetPoint" />
          </mxGeometry>
        </mxCell>
        <mxCell id="OhocnARGBNXMkphMfaer-13" value="" style="rounded=1;whiteSpace=wrap;html=1;fillColor=#333333;strokeColor=#E6E6E6;arcSize=9;" parent="1" vertex="1">
          <mxGeometry x="85" y="908" width="700" height="277" as="geometry" />
        </mxCell>
        <mxCell id="1nYw9ThHLsexZ4AbJdqg-111" value="" style="rounded=0;whiteSpace=wrap;html=1;strokeColor=none;fillColor=#000033;" parent="1" vertex="1">
          <mxGeometry x="520" y="40" width="200" height="800" as="geometry" />
        </mxCell>
        <mxCell id="1nYw9ThHLsexZ4AbJdqg-112" value="&lt;div&gt;Common Bus&lt;/div&gt;&lt;div&gt;MUX&lt;br&gt;&lt;/div&gt;" style="shape=trapezoid;perimeter=trapezoidPerimeter;whiteSpace=wrap;html=1;fixedSize=1;rotation=90;fillColor=#003366;strokeColor=#E6E6E6;fontColor=#E6E6E6;" parent="1" vertex="1">
          <mxGeometry x="233.63" y="376.88" width="651.25" height="77.5" as="geometry" />
        </mxCell>
        <mxCell id="1nYw9ThHLsexZ4AbJdqg-110" value="" style="rounded=0;whiteSpace=wrap;html=1;strokeColor=none;fillColor=#000033;" parent="1" vertex="1">
          <mxGeometry x="160" y="790" width="365" height="50" as="geometry" />
        </mxCell>
        <mxCell id="1nYw9ThHLsexZ4AbJdqg-109" value="" style="rounded=0;whiteSpace=wrap;html=1;strokeColor=none;fillColor=#000033;fillStyle=auto;" parent="1" vertex="1">
          <mxGeometry x="120" y="40" width="40" height="800" as="geometry" />
        </mxCell>
        <mxCell id="1nYw9ThHLsexZ4AbJdqg-2" style="edgeStyle=orthogonalEdgeStyle;rounded=0;orthogonalLoop=1;jettySize=auto;html=1;exitX=1;exitY=0.5;exitDx=0;exitDy=0;strokeColor=#E6E6E6;" parent="1" source="66MNDwoTvvdAMliS8eCf-1" edge="1">
          <mxGeometry relative="1" as="geometry">
            <mxPoint x="520" y="120" as="targetPoint" />
          </mxGeometry>
        </mxCell>
        <mxCell id="1nYw9ThHLsexZ4AbJdqg-25" style="edgeStyle=orthogonalEdgeStyle;rounded=0;orthogonalLoop=1;jettySize=auto;html=1;exitX=0;exitY=0.5;exitDx=0;exitDy=0;startArrow=classic;startFill=1;endArrow=none;endFill=0;strokeColor=#E6E6E6;" parent="1" source="66MNDwoTvvdAMliS8eCf-1" edge="1">
          <mxGeometry relative="1" as="geometry">
            <mxPoint x="160" y="120" as="targetPoint" />
          </mxGeometry>
        </mxCell>
        <mxCell id="66MNDwoTvvdAMliS8eCf-1" value="Mem" style="rounded=0;whiteSpace=wrap;html=1;labelBackgroundColor=none;strokeColor=#E6E6E6;fillColor=#003333;fontColor=#E6E6E6;spacingLeft=13;spacingBottom=26;" parent="1" vertex="1">
          <mxGeometry x="320" y="40" width="90" height="160" as="geometry" />
        </mxCell>
        <mxCell id="1nYw9ThHLsexZ4AbJdqg-3" style="edgeStyle=orthogonalEdgeStyle;rounded=0;orthogonalLoop=1;jettySize=auto;html=1;exitX=1;exitY=0.5;exitDx=0;exitDy=0;strokeColor=#E6E6E6;" parent="1" source="66MNDwoTvvdAMliS8eCf-2" edge="1">
          <mxGeometry relative="1" as="geometry">
            <mxPoint x="520" y="240" as="targetPoint" />
          </mxGeometry>
        </mxCell>
        <mxCell id="1nYw9ThHLsexZ4AbJdqg-26" value="[11:0]" style="edgeStyle=orthogonalEdgeStyle;rounded=0;orthogonalLoop=1;jettySize=auto;html=1;exitX=0;exitY=0.75;exitDx=0;exitDy=0;startArrow=classic;startFill=1;endArrow=none;endFill=0;strokeColor=#E6E6E6;labelBackgroundColor=#1A1A1A;fontColor=#E6E6E6;" parent="1" source="66MNDwoTvvdAMliS8eCf-2" edge="1">
          <mxGeometry relative="1" as="geometry">
            <mxPoint x="160" y="255" as="targetPoint" />
            <Array as="points">
              <mxPoint x="160" y="255" />
            </Array>
          </mxGeometry>
        </mxCell>
        <mxCell id="1nYw9ThHLsexZ4AbJdqg-36" style="edgeStyle=orthogonalEdgeStyle;rounded=0;orthogonalLoop=1;jettySize=auto;html=1;entryX=1;entryY=0.75;entryDx=0;entryDy=0;strokeColor=#E6E6E6;startArrow=oval;startFill=1;" parent="1" target="66MNDwoTvvdAMliS8eCf-1" edge="1">
          <mxGeometry relative="1" as="geometry">
            <mxPoint x="445" y="240" as="sourcePoint" />
            <Array as="points">
              <mxPoint x="445" y="160" />
            </Array>
          </mxGeometry>
        </mxCell>
        <mxCell id="66MNDwoTvvdAMliS8eCf-2" value="AR" style="rounded=0;whiteSpace=wrap;html=1;labelBackgroundColor=none;strokeColor=#E6E6E6;fillColor=#003333;fontColor=#E6E6E6;spacingLeft=13;" parent="1" vertex="1">
          <mxGeometry x="320" y="210" width="90" height="60" as="geometry" />
        </mxCell>
        <mxCell id="1nYw9ThHLsexZ4AbJdqg-4" style="edgeStyle=orthogonalEdgeStyle;rounded=0;orthogonalLoop=1;jettySize=auto;html=1;exitX=1;exitY=0.5;exitDx=0;exitDy=0;strokeColor=#E6E6E6;" parent="1" source="66MNDwoTvvdAMliS8eCf-6" edge="1">
          <mxGeometry relative="1" as="geometry">
            <mxPoint x="520" y="310" as="targetPoint" />
          </mxGeometry>
        </mxCell>
        <mxCell id="1nYw9ThHLsexZ4AbJdqg-27" style="edgeStyle=orthogonalEdgeStyle;rounded=0;orthogonalLoop=1;jettySize=auto;html=1;exitX=0;exitY=0.5;exitDx=0;exitDy=0;startArrow=classic;startFill=1;endArrow=none;endFill=0;strokeColor=#E6E6E6;" parent="1" source="66MNDwoTvvdAMliS8eCf-6" edge="1">
          <mxGeometry relative="1" as="geometry">
            <mxPoint x="160" y="310" as="targetPoint" />
          </mxGeometry>
        </mxCell>
        <mxCell id="66MNDwoTvvdAMliS8eCf-6" value="PC" style="rounded=0;whiteSpace=wrap;html=1;labelBackgroundColor=none;strokeColor=#E6E6E6;fillColor=#003333;fontColor=#E6E6E6;spacingLeft=13;" parent="1" vertex="1">
          <mxGeometry x="320" y="280" width="90" height="60" as="geometry" />
        </mxCell>
        <mxCell id="1nYw9ThHLsexZ4AbJdqg-5" style="edgeStyle=orthogonalEdgeStyle;rounded=0;orthogonalLoop=1;jettySize=auto;html=1;exitX=1;exitY=0.5;exitDx=0;exitDy=0;strokeColor=#E6E6E6;" parent="1" source="66MNDwoTvvdAMliS8eCf-7" edge="1">
          <mxGeometry relative="1" as="geometry">
            <mxPoint x="520" y="380" as="targetPoint" />
          </mxGeometry>
        </mxCell>
        <mxCell id="1nYw9ThHLsexZ4AbJdqg-28" style="edgeStyle=orthogonalEdgeStyle;rounded=0;orthogonalLoop=1;jettySize=auto;html=1;exitX=0;exitY=0.5;exitDx=0;exitDy=0;startArrow=classic;startFill=1;endArrow=none;endFill=0;strokeColor=#E6E6E6;" parent="1" source="66MNDwoTvvdAMliS8eCf-7" edge="1">
          <mxGeometry relative="1" as="geometry">
            <mxPoint x="160" y="380" as="targetPoint" />
          </mxGeometry>
        </mxCell>
        <mxCell id="66MNDwoTvvdAMliS8eCf-7" value="DR" style="rounded=0;whiteSpace=wrap;html=1;labelBackgroundColor=none;strokeColor=#E6E6E6;fillColor=#003333;fontColor=#E6E6E6;spacingLeft=13;" parent="1" vertex="1">
          <mxGeometry x="320" y="350" width="90" height="60" as="geometry" />
        </mxCell>
        <mxCell id="1nYw9ThHLsexZ4AbJdqg-8" style="edgeStyle=orthogonalEdgeStyle;rounded=0;orthogonalLoop=1;jettySize=auto;html=1;exitX=1;exitY=0.5;exitDx=0;exitDy=0;strokeColor=#E6E6E6;" parent="1" source="66MNDwoTvvdAMliS8eCf-8" edge="1">
          <mxGeometry relative="1" as="geometry">
            <mxPoint x="520" y="460" as="targetPoint" />
          </mxGeometry>
        </mxCell>
        <mxCell id="66MNDwoTvvdAMliS8eCf-8" value="AC" style="rounded=0;whiteSpace=wrap;html=1;labelBackgroundColor=none;strokeColor=#E6E6E6;fillColor=#003333;fontColor=#E6E6E6;spacingLeft=13;" parent="1" vertex="1">
          <mxGeometry x="320" y="430" width="90" height="60" as="geometry" />
        </mxCell>
        <mxCell id="1nYw9ThHLsexZ4AbJdqg-11" style="edgeStyle=orthogonalEdgeStyle;rounded=0;orthogonalLoop=1;jettySize=auto;html=1;exitX=1;exitY=0.5;exitDx=0;exitDy=0;strokeColor=#E6E6E6;" parent="1" source="66MNDwoTvvdAMliS8eCf-9" edge="1">
          <mxGeometry relative="1" as="geometry">
            <mxPoint x="520" y="540" as="targetPoint" />
          </mxGeometry>
        </mxCell>
        <mxCell id="1nYw9ThHLsexZ4AbJdqg-29" style="edgeStyle=orthogonalEdgeStyle;rounded=0;orthogonalLoop=1;jettySize=auto;html=1;exitX=0;exitY=0.5;exitDx=0;exitDy=0;endArrow=none;endFill=0;startArrow=classic;startFill=1;strokeColor=#E6E6E6;" parent="1" source="66MNDwoTvvdAMliS8eCf-9" edge="1">
          <mxGeometry relative="1" as="geometry">
            <mxPoint x="170" y="540" as="targetPoint" />
          </mxGeometry>
        </mxCell>
        <mxCell id="66MNDwoTvvdAMliS8eCf-9" value="InpR" style="rounded=0;whiteSpace=wrap;html=1;labelBackgroundColor=none;strokeColor=#E6E6E6;fillColor=#003333;fontColor=#E6E6E6;spacingLeft=13;" parent="1" vertex="1">
          <mxGeometry x="320" y="510" width="90" height="60" as="geometry" />
        </mxCell>
        <mxCell id="1nYw9ThHLsexZ4AbJdqg-12" style="edgeStyle=orthogonalEdgeStyle;rounded=0;orthogonalLoop=1;jettySize=auto;html=1;exitX=1;exitY=0.5;exitDx=0;exitDy=0;strokeColor=#E6E6E6;" parent="1" source="66MNDwoTvvdAMliS8eCf-10" edge="1">
          <mxGeometry relative="1" as="geometry">
            <mxPoint x="520" y="610" as="targetPoint" />
          </mxGeometry>
        </mxCell>
        <mxCell id="1nYw9ThHLsexZ4AbJdqg-33" style="edgeStyle=orthogonalEdgeStyle;rounded=0;orthogonalLoop=1;jettySize=auto;html=1;exitX=0;exitY=0.5;exitDx=0;exitDy=0;startArrow=classic;startFill=1;endArrow=none;endFill=0;strokeColor=#E6E6E6;" parent="1" source="66MNDwoTvvdAMliS8eCf-10" edge="1">
          <mxGeometry relative="1" as="geometry">
            <mxPoint x="160" y="610" as="targetPoint" />
          </mxGeometry>
        </mxCell>
        <mxCell id="66MNDwoTvvdAMliS8eCf-10" value="TR" style="rounded=0;whiteSpace=wrap;html=1;labelBackgroundColor=none;strokeColor=#E6E6E6;fillColor=#003333;fontColor=#E6E6E6;spacingLeft=13;" parent="1" vertex="1">
          <mxGeometry x="320" y="580" width="90" height="60" as="geometry" />
        </mxCell>
        <mxCell id="1nYw9ThHLsexZ4AbJdqg-13" style="edgeStyle=orthogonalEdgeStyle;rounded=0;orthogonalLoop=1;jettySize=auto;html=1;exitX=1;exitY=0.5;exitDx=0;exitDy=0;strokeColor=#E6E6E6;" parent="1" source="66MNDwoTvvdAMliS8eCf-11" edge="1">
          <mxGeometry relative="1" as="geometry">
            <mxPoint x="520" y="680" as="targetPoint" />
          </mxGeometry>
        </mxCell>
        <mxCell id="1nYw9ThHLsexZ4AbJdqg-34" style="edgeStyle=orthogonalEdgeStyle;rounded=0;orthogonalLoop=1;jettySize=auto;html=1;exitX=0;exitY=0.5;exitDx=0;exitDy=0;startArrow=classic;startFill=1;endArrow=none;endFill=0;strokeColor=#E6E6E6;" parent="1" source="66MNDwoTvvdAMliS8eCf-11" edge="1">
          <mxGeometry relative="1" as="geometry">
            <mxPoint x="160" y="680" as="targetPoint" />
          </mxGeometry>
        </mxCell>
        <mxCell id="66MNDwoTvvdAMliS8eCf-11" value="IR" style="rounded=0;whiteSpace=wrap;html=1;labelBackgroundColor=none;strokeColor=#E6E6E6;fillColor=#003333;fontColor=#E6E6E6;spacingLeft=13;" parent="1" vertex="1">
          <mxGeometry x="320" y="650" width="90" height="60" as="geometry" />
        </mxCell>
        <mxCell id="1nYw9ThHLsexZ4AbJdqg-16" style="edgeStyle=orthogonalEdgeStyle;rounded=0;orthogonalLoop=1;jettySize=auto;html=1;exitX=1;exitY=0.5;exitDx=0;exitDy=0;endArrow=none;endFill=0;strokeColor=#E6E6E6;" parent="1" source="66MNDwoTvvdAMliS8eCf-12" edge="1">
          <mxGeometry relative="1" as="geometry">
            <mxPoint x="500" y="750" as="targetPoint" />
          </mxGeometry>
        </mxCell>
        <mxCell id="1nYw9ThHLsexZ4AbJdqg-35" style="edgeStyle=orthogonalEdgeStyle;rounded=0;orthogonalLoop=1;jettySize=auto;html=1;exitX=0;exitY=0.5;exitDx=0;exitDy=0;startArrow=classic;startFill=1;endArrow=none;endFill=0;strokeColor=#E6E6E6;" parent="1" source="66MNDwoTvvdAMliS8eCf-12" edge="1">
          <mxGeometry relative="1" as="geometry">
            <mxPoint x="160" y="750" as="targetPoint" />
          </mxGeometry>
        </mxCell>
        <mxCell id="66MNDwoTvvdAMliS8eCf-12" value="OutR" style="rounded=0;whiteSpace=wrap;html=1;labelBackgroundColor=none;strokeColor=#E6E6E6;fillColor=#003333;fontColor=#E6E6E6;spacingLeft=13;" parent="1" vertex="1">
          <mxGeometry x="320" y="720" width="90" height="60" as="geometry" />
        </mxCell>
        <mxCell id="1nYw9ThHLsexZ4AbJdqg-1" value="" style="endArrow=none;html=1;rounded=0;strokeColor=#E6E6E6;" parent="1" edge="1">
          <mxGeometry width="50" height="50" relative="1" as="geometry">
            <mxPoint x="520" y="790" as="sourcePoint" />
            <mxPoint x="520" y="40" as="targetPoint" />
          </mxGeometry>
        </mxCell>
        <mxCell id="1nYw9ThHLsexZ4AbJdqg-7" value="" style="edgeStyle=orthogonalEdgeStyle;rounded=0;orthogonalLoop=1;jettySize=auto;html=1;exitX=0.992;exitY=0.583;exitDx=0;exitDy=0;exitPerimeter=0;strokeColor=#E6E6E6;" parent="1" source="1nYw9ThHLsexZ4AbJdqg-6" target="66MNDwoTvvdAMliS8eCf-8" edge="1">
          <mxGeometry relative="1" as="geometry" />
        </mxCell>
        <mxCell id="1nYw9ThHLsexZ4AbJdqg-9" style="edgeStyle=orthogonalEdgeStyle;rounded=0;orthogonalLoop=1;jettySize=auto;html=1;exitX=0;exitY=0.5;exitDx=0;exitDy=0;startArrow=classic;startFill=1;endArrow=oval;endFill=1;strokeColor=#E6E6E6;" parent="1" source="1nYw9ThHLsexZ4AbJdqg-95" edge="1">
          <mxGeometry relative="1" as="geometry">
            <mxPoint x="460" y="380" as="targetPoint" />
            <Array as="points">
              <mxPoint x="170" y="445" />
              <mxPoint x="170" y="420" />
              <mxPoint x="460" y="420" />
            </Array>
          </mxGeometry>
        </mxCell>
        <mxCell id="1nYw9ThHLsexZ4AbJdqg-10" style="edgeStyle=orthogonalEdgeStyle;rounded=0;orthogonalLoop=1;jettySize=auto;html=1;exitX=0;exitY=0.5;exitDx=0;exitDy=0;endArrow=oval;endFill=1;startArrow=classic;startFill=1;strokeColor=#E6E6E6;" parent="1" source="1nYw9ThHLsexZ4AbJdqg-94" edge="1">
          <mxGeometry relative="1" as="geometry">
            <mxPoint x="460" y="460" as="targetPoint" />
            <Array as="points">
              <mxPoint x="170" y="475" />
              <mxPoint x="170" y="505" />
              <mxPoint x="460" y="505" />
            </Array>
          </mxGeometry>
        </mxCell>
        <mxCell id="1nYw9ThHLsexZ4AbJdqg-97" style="edgeStyle=orthogonalEdgeStyle;rounded=0;orthogonalLoop=1;jettySize=auto;html=1;exitX=0;exitY=0.5;exitDx=0;exitDy=0;endArrow=none;endFill=0;startArrow=classic;startFill=1;strokeColor=#E6E6E6;" parent="1" source="1nYw9ThHLsexZ4AbJdqg-96" edge="1">
          <mxGeometry relative="1" as="geometry">
            <mxPoint x="170" y="460" as="targetPoint" />
          </mxGeometry>
        </mxCell>
        <mxCell id="1nYw9ThHLsexZ4AbJdqg-6" value="ALU" style="rounded=0;whiteSpace=wrap;html=1;labelBackgroundColor=none;strokeColor=#E6E6E6;fillColor=#00331A;fontColor=#E6E6E6;spacingTop=15;spacingRight=0;" parent="1" vertex="1">
          <mxGeometry x="190" y="425" width="105" height="60" as="geometry" />
        </mxCell>
        <mxCell id="1nYw9ThHLsexZ4AbJdqg-15" value="" style="curved=1;endArrow=none;html=1;rounded=0;endFill=0;strokeColor=#E6E6E6;" parent="1" edge="1">
          <mxGeometry width="50" height="50" relative="1" as="geometry">
            <mxPoint x="500" y="750" as="sourcePoint" />
            <mxPoint x="735" y="750" as="targetPoint" />
            <Array as="points">
              <mxPoint x="500" y="720" />
              <mxPoint x="620" y="685" />
              <mxPoint x="735" y="715" />
            </Array>
          </mxGeometry>
        </mxCell>
        <mxCell id="1nYw9ThHLsexZ4AbJdqg-17" value="" style="endArrow=classic;html=1;rounded=0;strokeColor=#E6E6E6;" parent="1" edge="1">
          <mxGeometry width="50" height="50" relative="1" as="geometry">
            <mxPoint x="735" y="749" as="sourcePoint" />
            <mxPoint x="805" y="749" as="targetPoint" />
          </mxGeometry>
        </mxCell>
        <mxCell id="1nYw9ThHLsexZ4AbJdqg-18" value="" style="endArrow=none;html=1;rounded=0;strokeColor=#E6E6E6;" parent="1" edge="1">
          <mxGeometry width="50" height="50" relative="1" as="geometry">
            <mxPoint x="720" y="839" as="sourcePoint" />
            <mxPoint x="720" y="39" as="targetPoint" />
          </mxGeometry>
        </mxCell>
        <mxCell id="1nYw9ThHLsexZ4AbJdqg-19" value="" style="endArrow=none;html=1;rounded=0;strokeColor=#E6E6E6;" parent="1" edge="1">
          <mxGeometry width="50" height="50" relative="1" as="geometry">
            <mxPoint x="720" y="40" as="sourcePoint" />
            <mxPoint x="520" y="40" as="targetPoint" />
          </mxGeometry>
        </mxCell>
        <mxCell id="1nYw9ThHLsexZ4AbJdqg-20" value="" style="endArrow=none;html=1;rounded=0;strokeColor=#E6E6E6;" parent="1" edge="1">
          <mxGeometry width="50" height="50" relative="1" as="geometry">
            <mxPoint x="720" y="840" as="sourcePoint" />
            <mxPoint x="120" y="840" as="targetPoint" />
          </mxGeometry>
        </mxCell>
        <mxCell id="1nYw9ThHLsexZ4AbJdqg-21" value="" style="endArrow=none;html=1;rounded=0;strokeColor=#E6E6E6;" parent="1" edge="1">
          <mxGeometry width="50" height="50" relative="1" as="geometry">
            <mxPoint x="160" y="790" as="sourcePoint" />
            <mxPoint x="160" y="40" as="targetPoint" />
          </mxGeometry>
        </mxCell>
        <mxCell id="1nYw9ThHLsexZ4AbJdqg-22" value="" style="endArrow=none;html=1;rounded=0;strokeColor=#E6E6E6;" parent="1" edge="1">
          <mxGeometry width="50" height="50" relative="1" as="geometry">
            <mxPoint x="120" y="840" as="sourcePoint" />
            <mxPoint x="120" y="40" as="targetPoint" />
          </mxGeometry>
        </mxCell>
        <mxCell id="1nYw9ThHLsexZ4AbJdqg-23" value="" style="endArrow=none;html=1;rounded=0;strokeColor=#E6E6E6;" parent="1" edge="1">
          <mxGeometry width="50" height="50" relative="1" as="geometry">
            <mxPoint x="520" y="790" as="sourcePoint" />
            <mxPoint x="160" y="790" as="targetPoint" />
          </mxGeometry>
        </mxCell>
        <mxCell id="1nYw9ThHLsexZ4AbJdqg-24" value="" style="endArrow=none;html=1;rounded=0;strokeColor=#E6E6E6;" parent="1" edge="1">
          <mxGeometry width="50" height="50" relative="1" as="geometry">
            <mxPoint x="160" y="40" as="sourcePoint" />
            <mxPoint x="120" y="40" as="targetPoint" />
          </mxGeometry>
        </mxCell>
        <mxCell id="1nYw9ThHLsexZ4AbJdqg-30" value="" style="curved=1;endArrow=none;html=1;rounded=0;endFill=0;strokeColor=#E6E6E6;" parent="1" edge="1">
          <mxGeometry width="50" height="50" relative="1" as="geometry">
            <mxPoint x="110" y="540" as="sourcePoint" />
            <mxPoint x="170" y="540" as="targetPoint" />
            <Array as="points">
              <mxPoint x="110" y="520" />
              <mxPoint x="170" y="520" />
            </Array>
          </mxGeometry>
        </mxCell>
        <mxCell id="1nYw9ThHLsexZ4AbJdqg-32" value="" style="endArrow=none;html=1;rounded=0;endFill=0;startArrow=none;startFill=0;strokeColor=#E6E6E6;" parent="1" edge="1">
          <mxGeometry width="50" height="50" relative="1" as="geometry">
            <mxPoint x="110" y="540" as="sourcePoint" />
            <mxPoint x="-160" y="540" as="targetPoint" />
          </mxGeometry>
        </mxCell>
        <mxCell id="1nYw9ThHLsexZ4AbJdqg-42" style="edgeStyle=orthogonalEdgeStyle;rounded=0;orthogonalLoop=1;jettySize=auto;html=1;exitX=1;exitY=0.5;exitDx=0;exitDy=0;entryX=0;entryY=0.25;entryDx=0;entryDy=0;strokeColor=#E6E6E6;" parent="1" source="sig-loadm" target="66MNDwoTvvdAMliS8eCf-1" edge="1">
          <mxGeometry relative="1" as="geometry" />
        </mxCell>
        <object label="Load M" name="sigloadm" id="sig-loadm">
          <mxCell style="shape=step;perimeter=stepPerimeter;whiteSpace=wrap;html=1;fixedSize=1;strokeColor=#E6E6E6;fillColor=#33001A;fontColor=#E6E6E6;" parent="1" vertex="1">
            <mxGeometry x="175" y="70" width="105" height="20" as="geometry" />
          </mxCell>
        </object>
        <mxCell id="1nYw9ThHLsexZ4AbJdqg-47" style="edgeStyle=orthogonalEdgeStyle;rounded=0;orthogonalLoop=1;jettySize=auto;html=1;exitX=1;exitY=0.5;exitDx=0;exitDy=0;entryX=0;entryY=0.25;entryDx=0;entryDy=0;strokeColor=#E6E6E6;" parent="1" source="sig-loadar" target="66MNDwoTvvdAMliS8eCf-2" edge="1">
          <mxGeometry relative="1" as="geometry" />
        </mxCell>
        <object label="Load AR" id="sig-loadar">
          <mxCell style="shape=step;perimeter=stepPerimeter;whiteSpace=wrap;html=1;fixedSize=1;strokeColor=#E6E6E6;fillColor=#33001A;fontColor=#E6E6E6;" parent="1" vertex="1">
            <mxGeometry x="197.5" y="215" width="95" height="20" as="geometry" />
          </mxCell>
        </object>
        <mxCell id="1nYw9ThHLsexZ4AbJdqg-49" style="edgeStyle=orthogonalEdgeStyle;rounded=0;orthogonalLoop=1;jettySize=auto;html=1;exitX=1;exitY=0.5;exitDx=0;exitDy=0;entryX=0;entryY=0.25;entryDx=0;entryDy=0;strokeColor=#E6E6E6;" parent="1" source="sig-loadpc" target="66MNDwoTvvdAMliS8eCf-6" edge="1">
          <mxGeometry relative="1" as="geometry">
            <Array as="points">
              <mxPoint x="293" y="295" />
            </Array>
          </mxGeometry>
        </mxCell>
        <object label="Load PC" id="sig-loadpc">
          <mxCell style="shape=step;perimeter=stepPerimeter;whiteSpace=wrap;html=1;fixedSize=1;strokeColor=#E6E6E6;fillColor=#33001A;fontColor=#E6E6E6;" parent="1" vertex="1">
            <mxGeometry x="197.5" y="285" width="95" height="20" as="geometry" />
          </mxCell>
        </object>
        <mxCell id="1nYw9ThHLsexZ4AbJdqg-51" style="edgeStyle=orthogonalEdgeStyle;rounded=0;orthogonalLoop=1;jettySize=auto;html=1;exitX=1;exitY=0.5;exitDx=0;exitDy=0;entryX=0;entryY=0.75;entryDx=0;entryDy=0;strokeColor=#E6E6E6;" parent="1" source="sig-enpc" target="66MNDwoTvvdAMliS8eCf-6" edge="1">
          <mxGeometry relative="1" as="geometry" />
        </mxCell>
        <object label="En PC" id="sig-enpc">
          <mxCell style="shape=step;perimeter=stepPerimeter;whiteSpace=wrap;html=1;fixedSize=1;strokeColor=#E6E6E6;fillColor=#33001A;fontColor=#E6E6E6;" parent="1" vertex="1">
            <mxGeometry x="197.5" y="315" width="95" height="20" as="geometry" />
          </mxCell>
        </object>
        <mxCell id="1nYw9ThHLsexZ4AbJdqg-53" style="edgeStyle=orthogonalEdgeStyle;rounded=0;orthogonalLoop=1;jettySize=auto;html=1;exitX=1;exitY=0.5;exitDx=0;exitDy=0;entryX=0;entryY=0.25;entryDx=0;entryDy=0;strokeColor=#E6E6E6;" parent="1" source="sig-loaddr" target="66MNDwoTvvdAMliS8eCf-7" edge="1">
          <mxGeometry relative="1" as="geometry" />
        </mxCell>
        <object label="Load DR" id="sig-loaddr">
          <mxCell style="shape=step;perimeter=stepPerimeter;whiteSpace=wrap;html=1;fixedSize=1;strokeColor=#E6E6E6;fillColor=#33001A;fontColor=#E6E6E6;" parent="1" vertex="1">
            <mxGeometry x="197.5" y="355" width="95" height="20" as="geometry" />
          </mxCell>
        </object>
        <mxCell id="1nYw9ThHLsexZ4AbJdqg-55" style="edgeStyle=orthogonalEdgeStyle;rounded=0;orthogonalLoop=1;jettySize=auto;html=1;exitX=1;exitY=0.5;exitDx=0;exitDy=0;entryX=0;entryY=0.25;entryDx=0;entryDy=0;strokeColor=#E6E6E6;" parent="1" source="1nYw9ThHLsexZ4AbJdqg-54" target="66MNDwoTvvdAMliS8eCf-8" edge="1">
          <mxGeometry relative="1" as="geometry">
            <Array as="points">
              <mxPoint x="300" y="405" />
              <mxPoint x="300" y="445" />
            </Array>
          </mxGeometry>
        </mxCell>
        <object label="Load AC" id="1nYw9ThHLsexZ4AbJdqg-54">
          <mxCell style="shape=step;perimeter=stepPerimeter;whiteSpace=wrap;html=1;fixedSize=1;strokeColor=#E6E6E6;fillColor=#33001A;fontColor=#E6E6E6;" parent="1" vertex="1">
            <mxGeometry x="197.5" y="395" width="95" height="20" as="geometry" />
          </mxCell>
        </object>
        <mxCell id="1nYw9ThHLsexZ4AbJdqg-57" style="edgeStyle=orthogonalEdgeStyle;rounded=0;orthogonalLoop=1;jettySize=auto;html=1;exitX=1;exitY=0.5;exitDx=0;exitDy=0;entryX=0;entryY=0.25;entryDx=0;entryDy=0;strokeColor=#E6E6E6;" parent="1" source="sig-loadinpr" target="66MNDwoTvvdAMliS8eCf-9" edge="1">
          <mxGeometry relative="1" as="geometry" />
        </mxCell>
        <object label="Load InpR" id="sig-loadinpr">
          <mxCell style="shape=step;perimeter=stepPerimeter;whiteSpace=wrap;html=1;fixedSize=1;strokeColor=#E6E6E6;fillColor=#33001A;fontColor=#E6E6E6;" parent="1" vertex="1">
            <mxGeometry x="197.5" y="515" width="95" height="20" as="geometry" />
          </mxCell>
        </object>
        <mxCell id="1nYw9ThHLsexZ4AbJdqg-59" style="edgeStyle=orthogonalEdgeStyle;rounded=0;orthogonalLoop=1;jettySize=auto;html=1;exitX=1;exitY=0.5;exitDx=0;exitDy=0;entryX=0;entryY=0.25;entryDx=0;entryDy=0;strokeColor=#E6E6E6;" parent="1" source="sig-loadtr" target="66MNDwoTvvdAMliS8eCf-10" edge="1">
          <mxGeometry relative="1" as="geometry" />
        </mxCell>
        <object label="Load TR" id="sig-loadtr">
          <mxCell style="shape=step;perimeter=stepPerimeter;whiteSpace=wrap;html=1;fixedSize=1;strokeColor=#E6E6E6;fillColor=#33001A;fontColor=#E6E6E6;" parent="1" vertex="1">
            <mxGeometry x="197.5" y="585" width="95" height="20" as="geometry" />
          </mxCell>
        </object>
        <mxCell id="1nYw9ThHLsexZ4AbJdqg-61" style="edgeStyle=orthogonalEdgeStyle;rounded=0;orthogonalLoop=1;jettySize=auto;html=1;exitX=1;exitY=0.5;exitDx=0;exitDy=0;entryX=0;entryY=0.25;entryDx=0;entryDy=0;strokeColor=#E6E6E6;" parent="1" source="sig-loadir" target="66MNDwoTvvdAMliS8eCf-11" edge="1">
          <mxGeometry relative="1" as="geometry" />
        </mxCell>
        <object label="Load IR" id="sig-loadir">
          <mxCell style="shape=step;perimeter=stepPerimeter;whiteSpace=wrap;html=1;fixedSize=1;strokeColor=#E6E6E6;fillColor=#33001A;fontColor=#E6E6E6;" parent="1" vertex="1">
            <mxGeometry x="197.5" y="655" width="95" height="20" as="geometry" />
          </mxCell>
        </object>
        <mxCell id="1nYw9ThHLsexZ4AbJdqg-63" style="edgeStyle=orthogonalEdgeStyle;rounded=0;orthogonalLoop=1;jettySize=auto;html=1;exitX=1;exitY=0.5;exitDx=0;exitDy=0;entryX=0;entryY=0.25;entryDx=0;entryDy=0;strokeColor=#E6E6E6;" parent="1" source="sig-loadoutr" target="66MNDwoTvvdAMliS8eCf-12" edge="1">
          <mxGeometry relative="1" as="geometry" />
        </mxCell>
        <object label="Load OutR" id="sig-loadoutr">
          <mxCell style="shape=step;perimeter=stepPerimeter;whiteSpace=wrap;html=1;fixedSize=1;strokeColor=#E6E6E6;fillColor=#33001A;fontColor=#E6E6E6;" parent="1" vertex="1">
            <mxGeometry x="190" y="725" width="100" height="20" as="geometry" />
          </mxCell>
        </object>
        <mxCell id="1nYw9ThHLsexZ4AbJdqg-64" value="Load" style="text;html=1;strokeColor=none;fillColor=none;align=left;verticalAlign=middle;whiteSpace=wrap;rounded=0;fontColor=#E6E6E6;" parent="1" vertex="1">
          <mxGeometry x="320" y="217.5" width="45" height="15" as="geometry" />
        </mxCell>
        <mxCell id="1nYw9ThHLsexZ4AbJdqg-65" value="Load" style="text;html=1;strokeColor=none;fillColor=none;align=left;verticalAlign=middle;whiteSpace=wrap;rounded=0;fontColor=#E6E6E6;" parent="1" vertex="1">
          <mxGeometry x="320" y="287.5" width="45" height="15" as="geometry" />
        </mxCell>
        <mxCell id="1nYw9ThHLsexZ4AbJdqg-66" value="&lt;div align=&quot;left&quot;&gt;En&lt;/div&gt;" style="text;html=1;strokeColor=none;fillColor=none;align=left;verticalAlign=middle;whiteSpace=wrap;rounded=0;fontColor=#E6E6E6;" parent="1" vertex="1">
          <mxGeometry x="320" y="310" width="35" height="30" as="geometry" />
        </mxCell>
        <mxCell id="1nYw9ThHLsexZ4AbJdqg-67" value="Load" style="text;html=1;strokeColor=none;fillColor=none;align=left;verticalAlign=middle;whiteSpace=wrap;rounded=0;fontColor=#E6E6E6;" parent="1" vertex="1">
          <mxGeometry x="320" y="357.5" width="35" height="15" as="geometry" />
        </mxCell>
        <mxCell id="1nYw9ThHLsexZ4AbJdqg-68" value="Load" style="text;html=1;strokeColor=none;fillColor=none;align=left;verticalAlign=middle;whiteSpace=wrap;rounded=0;fontColor=#E6E6E6;" parent="1" vertex="1">
          <mxGeometry x="320" y="437.5" width="35" height="15" as="geometry" />
        </mxCell>
        <mxCell id="1nYw9ThHLsexZ4AbJdqg-69" value="Load" style="text;html=1;strokeColor=none;fillColor=none;align=left;verticalAlign=middle;whiteSpace=wrap;rounded=0;fontColor=#E6E6E6;" parent="1" vertex="1">
          <mxGeometry x="320" y="517.5" width="35" height="15" as="geometry" />
        </mxCell>
        <mxCell id="1nYw9ThHLsexZ4AbJdqg-70" value="Load" style="text;html=1;strokeColor=none;fillColor=none;align=left;verticalAlign=middle;whiteSpace=wrap;rounded=0;fontColor=#E6E6E6;" parent="1" vertex="1">
          <mxGeometry x="320" y="587.5" width="35" height="15" as="geometry" />
        </mxCell>
        <mxCell id="1nYw9ThHLsexZ4AbJdqg-71" value="Load" style="text;html=1;strokeColor=none;fillColor=none;align=left;verticalAlign=middle;whiteSpace=wrap;rounded=0;fontColor=#E6E6E6;" parent="1" vertex="1">
          <mxGeometry x="320" y="650" width="35" height="30" as="geometry" />
        </mxCell>
        <mxCell id="1nYw9ThHLsexZ4AbJdqg-72" value="Load" style="text;html=1;strokeColor=none;fillColor=none;align=left;verticalAlign=middle;whiteSpace=wrap;rounded=0;fontColor=#E6E6E6;" parent="1" vertex="1">
          <mxGeometry x="320" y="720" width="35" height="30" as="geometry" />
        </mxCell>
        <mxCell id="1nYw9ThHLsexZ4AbJdqg-73" value="WE" style="text;html=1;strokeColor=none;fillColor=none;align=left;verticalAlign=middle;whiteSpace=wrap;rounded=0;fontColor=#E6E6E6;" parent="1" vertex="1">
          <mxGeometry x="321" y="65" width="60" height="30" as="geometry" />
        </mxCell>
        <mxCell id="1nYw9ThHLsexZ4AbJdqg-77" value="CLK" style="endArrow=block;html=1;rounded=0;endFill=0;endSize=13;strokeColor=#E6E6E6;labelBackgroundColor=#1A1A1A;fontColor=#E6E6E6;" parent="1" edge="1">
          <mxGeometry x="-1" width="50" height="50" relative="1" as="geometry">
            <mxPoint x="305" y="185" as="sourcePoint" />
            <mxPoint x="335" y="185" as="targetPoint" />
            <mxPoint as="offset" />
          </mxGeometry>
        </mxCell>
        <mxCell id="1nYw9ThHLsexZ4AbJdqg-81" value="CLK" style="endArrow=none;html=1;rounded=0;endFill=0;endSize=6;startSize=13;startArrow=block;startFill=0;strokeColor=#E6E6E6;labelBackgroundColor=#1A1A1A;fontColor=#E6E6E6;" parent="1" edge="1">
          <mxGeometry x="1" width="50" height="50" relative="1" as="geometry">
            <mxPoint x="395" y="330" as="sourcePoint" />
            <mxPoint x="425" y="330" as="targetPoint" />
            <mxPoint as="offset" />
          </mxGeometry>
        </mxCell>
        <mxCell id="1nYw9ThHLsexZ4AbJdqg-82" value="CLK" style="endArrow=none;html=1;rounded=0;endFill=0;endSize=6;startSize=13;startArrow=block;startFill=0;strokeColor=#E6E6E6;labelBackgroundColor=#1A1A1A;fontColor=#E6E6E6;" parent="1" edge="1">
          <mxGeometry x="1" width="50" height="50" relative="1" as="geometry">
            <mxPoint x="395" y="400" as="sourcePoint" />
            <mxPoint x="425" y="400" as="targetPoint" />
            <mxPoint as="offset" />
          </mxGeometry>
        </mxCell>
        <mxCell id="1nYw9ThHLsexZ4AbJdqg-83" value="CLK" style="endArrow=none;html=1;rounded=0;endFill=0;endSize=6;startSize=13;startArrow=block;startFill=0;strokeColor=#E6E6E6;labelBackgroundColor=#1A1A1A;fontColor=#E6E6E6;" parent="1" edge="1">
          <mxGeometry x="1" width="50" height="50" relative="1" as="geometry">
            <mxPoint x="395" y="480" as="sourcePoint" />
            <mxPoint x="425" y="480" as="targetPoint" />
            <mxPoint as="offset" />
          </mxGeometry>
        </mxCell>
        <mxCell id="1nYw9ThHLsexZ4AbJdqg-84" value="CLK" style="endArrow=block;html=1;rounded=0;endFill=0;endSize=13;strokeColor=#E6E6E6;labelBackgroundColor=#1A1A1A;fontColor=#E6E6E6;" parent="1" edge="1">
          <mxGeometry x="-1" width="50" height="50" relative="1" as="geometry">
            <mxPoint x="305" y="560" as="sourcePoint" />
            <mxPoint x="335" y="560" as="targetPoint" />
            <mxPoint as="offset" />
          </mxGeometry>
        </mxCell>
        <mxCell id="1nYw9ThHLsexZ4AbJdqg-85" value="CLK" style="endArrow=block;html=1;rounded=0;endFill=0;endSize=13;strokeColor=#E6E6E6;labelBackgroundColor=#1A1A1A;fontColor=#E6E6E6;" parent="1" edge="1">
          <mxGeometry x="-1" width="50" height="50" relative="1" as="geometry">
            <mxPoint x="305" y="630" as="sourcePoint" />
            <mxPoint x="335" y="630" as="targetPoint" />
            <mxPoint as="offset" />
          </mxGeometry>
        </mxCell>
        <mxCell id="1nYw9ThHLsexZ4AbJdqg-86" value="CLK" style="endArrow=block;html=1;rounded=0;endFill=0;endSize=13;strokeColor=#E6E6E6;labelBackgroundColor=#1A1A1A;fontColor=#E6E6E6;" parent="1" edge="1">
          <mxGeometry x="-1" width="50" height="50" relative="1" as="geometry">
            <mxPoint x="305" y="700" as="sourcePoint" />
            <mxPoint x="335" y="700" as="targetPoint" />
            <mxPoint as="offset" />
          </mxGeometry>
        </mxCell>
        <mxCell id="1nYw9ThHLsexZ4AbJdqg-87" value="CLK" style="endArrow=block;html=1;rounded=0;endFill=0;endSize=13;strokeColor=#E6E6E6;labelBackgroundColor=#1A1A1A;fontColor=#E6E6E6;" parent="1" edge="1">
          <mxGeometry x="-1" width="50" height="50" relative="1" as="geometry">
            <mxPoint x="305" y="770" as="sourcePoint" />
            <mxPoint x="335" y="770" as="targetPoint" />
            <mxPoint as="offset" />
          </mxGeometry>
        </mxCell>
        <mxCell id="1nYw9ThHLsexZ4AbJdqg-88" value="" style="curved=1;endArrow=none;html=1;rounded=0;endFill=0;strokeColor=#E6E6E6;" parent="1" edge="1">
          <mxGeometry width="50" height="50" relative="1" as="geometry">
            <mxPoint x="110" y="460" as="sourcePoint" />
            <mxPoint x="170" y="460.63" as="targetPoint" />
            <Array as="points">
              <mxPoint x="110" y="441" />
              <mxPoint x="170" y="440.63" />
            </Array>
          </mxGeometry>
        </mxCell>
        <mxCell id="1nYw9ThHLsexZ4AbJdqg-91" style="edgeStyle=orthogonalEdgeStyle;rounded=0;orthogonalLoop=1;jettySize=auto;html=1;exitX=1;exitY=0.5;exitDx=0;exitDy=0;shape=flexArrow;endWidth=7.301587301587301;endSize=2;width=5.714285714285714;strokeColor=#E6E6E6;" parent="1" edge="1">
          <mxGeometry relative="1" as="geometry">
            <mxPoint x="110" y="459.5" as="targetPoint" />
            <mxPoint x="85" y="459.5" as="sourcePoint" />
            <Array as="points">
              <mxPoint x="95" y="460" />
              <mxPoint x="95" y="460" />
            </Array>
          </mxGeometry>
        </mxCell>
        <mxCell id="1nYw9ThHLsexZ4AbJdqg-90" value="ALU Encoder" style="rounded=0;whiteSpace=wrap;html=1;strokeColor=#E6E6E6;fillColor=#330033;fontColor=#E6E6E6;" parent="1" vertex="1">
          <mxGeometry x="15" y="384.38" width="70" height="140" as="geometry" />
        </mxCell>
        <mxCell id="1nYw9ThHLsexZ4AbJdqg-92" value="" style="endArrow=none;html=1;rounded=0;strokeColor=#E6E6E6;" parent="1" edge="1">
          <mxGeometry width="50" height="50" relative="1" as="geometry">
            <mxPoint x="90" y="464.5" as="sourcePoint" />
            <mxPoint x="95" y="454.5" as="targetPoint" />
          </mxGeometry>
        </mxCell>
        <mxCell id="1nYw9ThHLsexZ4AbJdqg-93" value="3bits" style="text;html=1;strokeColor=none;fillColor=none;align=center;verticalAlign=middle;whiteSpace=wrap;rounded=0;fontSize=9;fontColor=#E6E6E6;" parent="1" vertex="1">
          <mxGeometry x="80" y="429" width="40" height="30" as="geometry" />
        </mxCell>
        <mxCell id="1nYw9ThHLsexZ4AbJdqg-94" value="A" style="text;html=1;strokeColor=none;fillColor=none;align=left;verticalAlign=middle;whiteSpace=wrap;rounded=0;fontColor=#E6E6E6;" parent="1" vertex="1">
          <mxGeometry x="190" y="465" width="15" height="20" as="geometry" />
        </mxCell>
        <mxCell id="1nYw9ThHLsexZ4AbJdqg-95" value="B" style="text;html=1;strokeColor=none;fillColor=none;align=left;verticalAlign=middle;whiteSpace=wrap;rounded=0;fontColor=#E6E6E6;" parent="1" vertex="1">
          <mxGeometry x="190" y="435" width="15" height="20" as="geometry" />
        </mxCell>
        <mxCell id="1nYw9ThHLsexZ4AbJdqg-96" value="Func" style="text;html=1;strokeColor=none;fillColor=none;align=left;verticalAlign=middle;whiteSpace=wrap;rounded=0;fontColor=#E6E6E6;" parent="1" vertex="1">
          <mxGeometry x="190" y="450.5" width="30" height="20" as="geometry" />
        </mxCell>
        <mxCell id="1nYw9ThHLsexZ4AbJdqg-98" value="" style="endArrow=none;html=1;rounded=0;strokeColor=#E6E6E6;" parent="1" edge="1">
          <mxGeometry width="50" height="50" relative="1" as="geometry">
            <mxPoint x="425" y="165" as="sourcePoint" />
            <mxPoint x="435" y="155" as="targetPoint" />
          </mxGeometry>
        </mxCell>
        <mxCell id="1nYw9ThHLsexZ4AbJdqg-99" value="12 bits" style="text;html=1;strokeColor=none;fillColor=none;align=center;verticalAlign=middle;whiteSpace=wrap;rounded=0;fontSize=10;fontColor=#E6E6E6;" parent="1" vertex="1">
          <mxGeometry x="405" y="135" width="60" height="30" as="geometry" />
        </mxCell>
        <mxCell id="1nYw9ThHLsexZ4AbJdqg-100" value="Addr" style="text;html=1;strokeColor=none;fillColor=none;align=right;verticalAlign=middle;whiteSpace=wrap;rounded=0;fontColor=#E6E6E6;" parent="1" vertex="1">
          <mxGeometry x="350" y="145" width="60" height="30" as="geometry" />
        </mxCell>
        <mxCell id="1nYw9ThHLsexZ4AbJdqg-101" value="Data" style="text;html=1;strokeColor=none;fillColor=none;align=left;verticalAlign=middle;whiteSpace=wrap;rounded=0;fontColor=#E6E6E6;" parent="1" vertex="1">
          <mxGeometry x="320" y="250" width="45" height="15" as="geometry" />
        </mxCell>
        <mxCell id="1nYw9ThHLsexZ4AbJdqg-102" value="Data" style="text;html=1;strokeColor=none;fillColor=none;align=left;verticalAlign=middle;whiteSpace=wrap;rounded=0;fontColor=#E6E6E6;" parent="1" vertex="1">
          <mxGeometry x="320" y="302.5" width="45" height="15" as="geometry" />
        </mxCell>
        <mxCell id="1nYw9ThHLsexZ4AbJdqg-103" value="Data" style="text;html=1;strokeColor=none;fillColor=none;align=left;verticalAlign=middle;whiteSpace=wrap;rounded=0;fontColor=#E6E6E6;" parent="1" vertex="1">
          <mxGeometry x="320" y="372.5" width="45" height="15" as="geometry" />
        </mxCell>
        <mxCell id="1nYw9ThHLsexZ4AbJdqg-104" value="Data" style="text;html=1;strokeColor=none;fillColor=none;align=left;verticalAlign=middle;whiteSpace=wrap;rounded=0;fontColor=#E6E6E6;" parent="1" vertex="1">
          <mxGeometry x="320" y="452.5" width="45" height="15" as="geometry" />
        </mxCell>
        <mxCell id="1nYw9ThHLsexZ4AbJdqg-105" value="Data" style="text;html=1;strokeColor=none;fillColor=none;align=left;verticalAlign=middle;whiteSpace=wrap;rounded=0;fontColor=#E6E6E6;" parent="1" vertex="1">
          <mxGeometry x="320" y="532.5" width="45" height="15" as="geometry" />
        </mxCell>
        <mxCell id="1nYw9ThHLsexZ4AbJdqg-106" value="Data" style="text;html=1;strokeColor=none;fillColor=none;align=left;verticalAlign=middle;whiteSpace=wrap;rounded=0;fontColor=#E6E6E6;" parent="1" vertex="1">
          <mxGeometry x="320" y="602.5" width="45" height="15" as="geometry" />
        </mxCell>
        <mxCell id="1nYw9ThHLsexZ4AbJdqg-107" value="Data" style="text;html=1;strokeColor=none;fillColor=none;align=left;verticalAlign=middle;whiteSpace=wrap;rounded=0;fontColor=#E6E6E6;" parent="1" vertex="1">
          <mxGeometry x="320" y="672.5" width="45" height="15" as="geometry" />
        </mxCell>
        <mxCell id="1nYw9ThHLsexZ4AbJdqg-108" value="Data" style="text;html=1;strokeColor=none;fillColor=none;align=left;verticalAlign=middle;whiteSpace=wrap;rounded=0;fontColor=#E6E6E6;" parent="1" vertex="1">
          <mxGeometry x="320" y="742.5" width="45" height="15" as="geometry" />
        </mxCell>
        <mxCell id="1nYw9ThHLsexZ4AbJdqg-115" value="S" style="text;html=1;strokeColor=none;fillColor=none;align=center;verticalAlign=middle;whiteSpace=wrap;rounded=0;fontColor=#E6E6E6;" parent="1" vertex="1">
          <mxGeometry x="560" y="708" width="15" height="30" as="geometry" />
        </mxCell>
        <mxCell id="1nYw9ThHLsexZ4AbJdqg-116" value="" style="endArrow=none;html=1;rounded=0;strokeColor=#E6E6E6;" parent="1" edge="1">
          <mxGeometry width="50" height="50" relative="1" as="geometry">
            <mxPoint x="556" y="770" as="sourcePoint" />
            <mxPoint x="581" y="754.5" as="targetPoint" />
          </mxGeometry>
        </mxCell>
        <mxCell id="1nYw9ThHLsexZ4AbJdqg-117" value="3bits" style="text;html=1;strokeColor=none;fillColor=none;align=center;verticalAlign=middle;whiteSpace=wrap;rounded=0;fontSize=9;fontColor=#E6E6E6;" parent="1" vertex="1">
          <mxGeometry x="575" y="745" width="40" height="30" as="geometry" />
        </mxCell>
        <mxCell id="1nYw9ThHLsexZ4AbJdqg-118" value="0" style="text;html=1;strokeColor=none;fillColor=none;align=left;verticalAlign=middle;whiteSpace=wrap;rounded=0;fontColor=#E6E6E6;" parent="1" vertex="1">
          <mxGeometry x="520" y="105" width="60" height="30" as="geometry" />
        </mxCell>
        <mxCell id="1nYw9ThHLsexZ4AbJdqg-119" value="1" style="text;html=1;strokeColor=none;fillColor=none;align=left;verticalAlign=middle;whiteSpace=wrap;rounded=0;fontColor=#E6E6E6;" parent="1" vertex="1">
          <mxGeometry x="520" y="225" width="60" height="30" as="geometry" />
        </mxCell>
        <mxCell id="1nYw9ThHLsexZ4AbJdqg-120" value="2" style="text;html=1;strokeColor=none;fillColor=none;align=left;verticalAlign=middle;whiteSpace=wrap;rounded=0;fontColor=#E6E6E6;" parent="1" vertex="1">
          <mxGeometry x="520" y="295" width="60" height="30" as="geometry" />
        </mxCell>
        <mxCell id="1nYw9ThHLsexZ4AbJdqg-121" value="3" style="text;html=1;strokeColor=none;fillColor=none;align=left;verticalAlign=middle;whiteSpace=wrap;rounded=0;fontColor=#E6E6E6;" parent="1" vertex="1">
          <mxGeometry x="520" y="365" width="60" height="30" as="geometry" />
        </mxCell>
        <mxCell id="1nYw9ThHLsexZ4AbJdqg-122" value="4" style="text;html=1;strokeColor=none;fillColor=none;align=left;verticalAlign=middle;whiteSpace=wrap;rounded=0;fontColor=#E6E6E6;" parent="1" vertex="1">
          <mxGeometry x="520" y="445" width="60" height="30" as="geometry" />
        </mxCell>
        <mxCell id="1nYw9ThHLsexZ4AbJdqg-123" value="5" style="text;html=1;strokeColor=none;fillColor=none;align=left;verticalAlign=middle;whiteSpace=wrap;rounded=0;fontColor=#E6E6E6;" parent="1" vertex="1">
          <mxGeometry x="520" y="525" width="60" height="30" as="geometry" />
        </mxCell>
        <mxCell id="1nYw9ThHLsexZ4AbJdqg-124" value="6" style="text;html=1;strokeColor=none;fillColor=none;align=left;verticalAlign=middle;whiteSpace=wrap;rounded=0;fontColor=#E6E6E6;" parent="1" vertex="1">
          <mxGeometry x="520" y="595" width="60" height="30" as="geometry" />
        </mxCell>
        <mxCell id="1nYw9ThHLsexZ4AbJdqg-125" value="7" style="text;html=1;strokeColor=none;fillColor=none;align=left;verticalAlign=middle;whiteSpace=wrap;rounded=0;fontColor=#E6E6E6;" parent="1" vertex="1">
          <mxGeometry x="520" y="665" width="60" height="30" as="geometry" />
        </mxCell>
        <mxCell id="1nYw9ThHLsexZ4AbJdqg-166" value="" style="group" parent="1" vertex="1" connectable="0">
          <mxGeometry x="587" y="379" width="130" height="120" as="geometry" />
        </mxCell>
        <mxCell id="1nYw9ThHLsexZ4AbJdqg-128" value="" style="endArrow=none;html=1;rounded=0;endFill=0;strokeColor=#E6E6E6;" parent="1nYw9ThHLsexZ4AbJdqg-166" edge="1">
          <mxGeometry width="50" height="50" relative="1" as="geometry">
            <mxPoint x="25" as="sourcePoint" />
            <mxPoint x="45" y="100" as="targetPoint" />
            <Array as="points">
              <mxPoint x="45" />
            </Array>
          </mxGeometry>
        </mxCell>
        <mxCell id="1nYw9ThHLsexZ4AbJdqg-146" value="" style="endArrow=none;html=1;rounded=0;endFill=0;strokeColor=#E6E6E6;" parent="1nYw9ThHLsexZ4AbJdqg-166" edge="1">
          <mxGeometry width="50" height="50" relative="1" as="geometry">
            <mxPoint x="25" y="5" as="sourcePoint" />
            <mxPoint x="50" y="100" as="targetPoint" />
            <Array as="points">
              <mxPoint x="50" y="5" />
            </Array>
          </mxGeometry>
        </mxCell>
        <mxCell id="1nYw9ThHLsexZ4AbJdqg-147" value="" style="endArrow=none;html=1;rounded=0;endFill=0;strokeColor=#E6E6E6;" parent="1nYw9ThHLsexZ4AbJdqg-166" edge="1">
          <mxGeometry width="50" height="50" relative="1" as="geometry">
            <mxPoint x="25" y="10" as="sourcePoint" />
            <mxPoint x="55" y="100" as="targetPoint" />
            <Array as="points">
              <mxPoint x="55" y="10" />
            </Array>
          </mxGeometry>
        </mxCell>
        <mxCell id="1nYw9ThHLsexZ4AbJdqg-148" value="" style="endArrow=none;html=1;rounded=0;endFill=0;strokeColor=#E6E6E6;" parent="1nYw9ThHLsexZ4AbJdqg-166" edge="1">
          <mxGeometry width="50" height="50" relative="1" as="geometry">
            <mxPoint x="25" y="15" as="sourcePoint" />
            <mxPoint x="60" y="100" as="targetPoint" />
            <Array as="points">
              <mxPoint x="60" y="15" />
            </Array>
          </mxGeometry>
        </mxCell>
        <mxCell id="1nYw9ThHLsexZ4AbJdqg-149" value="" style="endArrow=none;html=1;rounded=0;endFill=0;strokeColor=#E6E6E6;" parent="1nYw9ThHLsexZ4AbJdqg-166" edge="1">
          <mxGeometry width="50" height="50" relative="1" as="geometry">
            <mxPoint x="25" y="20" as="sourcePoint" />
            <mxPoint x="65" y="100" as="targetPoint" />
            <Array as="points">
              <mxPoint x="65" y="20" />
            </Array>
          </mxGeometry>
        </mxCell>
        <mxCell id="1nYw9ThHLsexZ4AbJdqg-150" value="" style="endArrow=none;html=1;rounded=0;endFill=0;strokeColor=#E6E6E6;" parent="1nYw9ThHLsexZ4AbJdqg-166" edge="1">
          <mxGeometry width="50" height="50" relative="1" as="geometry">
            <mxPoint x="25" y="25" as="sourcePoint" />
            <mxPoint x="70" y="100" as="targetPoint" />
            <Array as="points">
              <mxPoint x="70" y="25" />
            </Array>
          </mxGeometry>
        </mxCell>
        <mxCell id="1nYw9ThHLsexZ4AbJdqg-151" value="" style="endArrow=none;html=1;rounded=0;endFill=0;strokeColor=#E6E6E6;" parent="1nYw9ThHLsexZ4AbJdqg-166" edge="1">
          <mxGeometry width="50" height="50" relative="1" as="geometry">
            <mxPoint x="25" y="30" as="sourcePoint" />
            <mxPoint x="75" y="100" as="targetPoint" />
            <Array as="points">
              <mxPoint x="75" y="30" />
            </Array>
          </mxGeometry>
        </mxCell>
        <mxCell id="1nYw9ThHLsexZ4AbJdqg-152" value="" style="endArrow=none;html=1;rounded=0;endFill=0;strokeColor=#E6E6E6;" parent="1nYw9ThHLsexZ4AbJdqg-166" edge="1">
          <mxGeometry width="50" height="50" relative="1" as="geometry">
            <mxPoint x="25" y="35" as="sourcePoint" />
            <mxPoint x="80" y="100" as="targetPoint" />
            <Array as="points">
              <mxPoint x="80" y="35" />
            </Array>
          </mxGeometry>
        </mxCell>
        <mxCell id="1nYw9ThHLsexZ4AbJdqg-153" value="" style="endArrow=none;html=1;rounded=0;endFill=0;strokeColor=#E6E6E6;" parent="1nYw9ThHLsexZ4AbJdqg-166" edge="1">
          <mxGeometry width="50" height="50" relative="1" as="geometry">
            <mxPoint x="25" y="40" as="sourcePoint" />
            <mxPoint x="85" y="100" as="targetPoint" />
            <Array as="points">
              <mxPoint x="85" y="40" />
            </Array>
          </mxGeometry>
        </mxCell>
        <mxCell id="1nYw9ThHLsexZ4AbJdqg-154" value="" style="endArrow=none;html=1;rounded=0;endFill=0;strokeColor=#E6E6E6;" parent="1nYw9ThHLsexZ4AbJdqg-166" edge="1">
          <mxGeometry width="50" height="50" relative="1" as="geometry">
            <mxPoint x="25" y="45" as="sourcePoint" />
            <mxPoint x="90" y="100" as="targetPoint" />
            <Array as="points">
              <mxPoint x="90" y="45" />
            </Array>
          </mxGeometry>
        </mxCell>
        <mxCell id="1nYw9ThHLsexZ4AbJdqg-155" value="" style="endArrow=none;html=1;rounded=0;endFill=0;strokeColor=#E6E6E6;" parent="1nYw9ThHLsexZ4AbJdqg-166" edge="1">
          <mxGeometry width="50" height="50" relative="1" as="geometry">
            <mxPoint x="25" y="50" as="sourcePoint" />
            <mxPoint x="95" y="100" as="targetPoint" />
            <Array as="points">
              <mxPoint x="95" y="50" />
            </Array>
          </mxGeometry>
        </mxCell>
        <mxCell id="1nYw9ThHLsexZ4AbJdqg-156" value="" style="endArrow=none;html=1;rounded=0;endFill=0;strokeColor=#E6E6E6;" parent="1nYw9ThHLsexZ4AbJdqg-166" edge="1">
          <mxGeometry width="50" height="50" relative="1" as="geometry">
            <mxPoint x="25" y="55" as="sourcePoint" />
            <mxPoint x="100" y="100" as="targetPoint" />
            <Array as="points">
              <mxPoint x="100" y="55" />
            </Array>
          </mxGeometry>
        </mxCell>
        <mxCell id="1nYw9ThHLsexZ4AbJdqg-157" value="" style="endArrow=none;html=1;rounded=0;endFill=0;strokeColor=#E6E6E6;" parent="1nYw9ThHLsexZ4AbJdqg-166" edge="1">
          <mxGeometry width="50" height="50" relative="1" as="geometry">
            <mxPoint x="25" y="60" as="sourcePoint" />
            <mxPoint x="105" y="100" as="targetPoint" />
            <Array as="points">
              <mxPoint x="105" y="60" />
            </Array>
          </mxGeometry>
        </mxCell>
        <mxCell id="1nYw9ThHLsexZ4AbJdqg-158" value="" style="endArrow=none;html=1;rounded=0;endFill=0;strokeColor=#E6E6E6;" parent="1nYw9ThHLsexZ4AbJdqg-166" edge="1">
          <mxGeometry width="50" height="50" relative="1" as="geometry">
            <mxPoint x="25" y="65" as="sourcePoint" />
            <mxPoint x="110" y="100" as="targetPoint" />
            <Array as="points">
              <mxPoint x="110" y="65" />
            </Array>
          </mxGeometry>
        </mxCell>
        <mxCell id="1nYw9ThHLsexZ4AbJdqg-159" value="" style="endArrow=none;html=1;rounded=0;endFill=0;strokeColor=#E6E6E6;" parent="1nYw9ThHLsexZ4AbJdqg-166" edge="1">
          <mxGeometry width="50" height="50" relative="1" as="geometry">
            <mxPoint x="25" y="70" as="sourcePoint" />
            <mxPoint x="115" y="100" as="targetPoint" />
            <Array as="points">
              <mxPoint x="115" y="70" />
            </Array>
          </mxGeometry>
        </mxCell>
        <mxCell id="1nYw9ThHLsexZ4AbJdqg-160" value="" style="endArrow=none;html=1;rounded=0;endFill=0;strokeColor=#E6E6E6;" parent="1nYw9ThHLsexZ4AbJdqg-166" edge="1">
          <mxGeometry width="50" height="50" relative="1" as="geometry">
            <mxPoint x="25" y="75" as="sourcePoint" />
            <mxPoint x="120" y="100" as="targetPoint" />
            <Array as="points">
              <mxPoint x="120" y="75" />
            </Array>
          </mxGeometry>
        </mxCell>
        <mxCell id="1nYw9ThHLsexZ4AbJdqg-164" value="" style="triangle;whiteSpace=wrap;html=1;rotation=90;fillColor=#000066;strokeColor=#E6E6E6;" parent="1nYw9ThHLsexZ4AbJdqg-166" vertex="1">
          <mxGeometry x="72.5" y="62.5" width="20" height="95" as="geometry" />
        </mxCell>
        <mxCell id="1nYw9ThHLsexZ4AbJdqg-165" value="" style="shape=flexArrow;endArrow=classic;html=1;rounded=0;strokeColor=none;fillColor=#E6E6E6;endWidth=63.06777645659929;endSize=4.63448275862069;width=16.551724137931036;" parent="1nYw9ThHLsexZ4AbJdqg-166" edge="1">
          <mxGeometry width="50" height="50" relative="1" as="geometry">
            <mxPoint x="10" y="36" as="sourcePoint" />
            <mxPoint x="40" y="36" as="targetPoint" />
          </mxGeometry>
        </mxCell>
        <mxCell id="1nYw9ThHLsexZ4AbJdqg-168" value="[15:0]" style="text;html=1;strokeColor=none;fillColor=none;align=center;verticalAlign=middle;whiteSpace=wrap;rounded=0;fontColor=#E6E6E6;" parent="1nYw9ThHLsexZ4AbJdqg-166" vertex="1">
          <mxGeometry x="72.5" y="16" width="60" height="30" as="geometry" />
        </mxCell>
        <mxCell id="1nYw9ThHLsexZ4AbJdqg-179" value="0000" style="shape=callout;perimeter=calloutPerimeter;size=10;position=0.3;position2=0.5;base=14;fontFamily=Fira Code;html=1;whiteSpace=wrap;fillColor=#99004D;" parent="1" vertex="1">
          <mxGeometry x="445" y="725" width="34" height="25" as="geometry" />
        </mxCell>
        <mxCell id="1nYw9ThHLsexZ4AbJdqg-180" value="0000" style="shape=callout;perimeter=calloutPerimeter;size=10;position=0.3;position2=0.5;base=14;fontFamily=Fira Code;html=1;whiteSpace=wrap;fillColor=#99004D;" parent="1" vertex="1">
          <mxGeometry x="445" y="655" width="34" height="25" as="geometry" />
        </mxCell>
        <mxCell id="1nYw9ThHLsexZ4AbJdqg-181" value="0000" style="shape=callout;perimeter=calloutPerimeter;size=10;position=0.3;position2=0.5;base=14;fontFamily=Fira Code;html=1;whiteSpace=wrap;fillColor=#99004D;" parent="1" vertex="1">
          <mxGeometry x="445" y="585" width="34" height="25" as="geometry" />
        </mxCell>
        <mxCell id="1nYw9ThHLsexZ4AbJdqg-182" value="0000" style="shape=callout;perimeter=calloutPerimeter;size=10;position=0.3;position2=0.5;base=14;fontFamily=Fira Code;html=1;whiteSpace=wrap;fillColor=#99004D;" parent="1" vertex="1">
          <mxGeometry x="445" y="515" width="34" height="25" as="geometry" />
        </mxCell>
        <mxCell id="1nYw9ThHLsexZ4AbJdqg-183" value="0000" style="shape=callout;perimeter=calloutPerimeter;size=10;position=0.3;position2=0.5;base=14;fontFamily=Fira Code;html=1;whiteSpace=wrap;fillColor=#99004D;" parent="1" vertex="1">
          <mxGeometry x="425" y="435" width="34" height="25" as="geometry" />
        </mxCell>
        <mxCell id="1nYw9ThHLsexZ4AbJdqg-184" value="0000" style="shape=callout;perimeter=calloutPerimeter;size=10;position=0.3;position2=0.5;base=14;fontFamily=Fira Code;html=1;whiteSpace=wrap;fillColor=#99004D;" parent="1" vertex="1">
          <mxGeometry x="425" y="355.5" width="34" height="25" as="geometry" />
        </mxCell>
        <mxCell id="1nYw9ThHLsexZ4AbJdqg-185" value="0000" style="shape=callout;perimeter=calloutPerimeter;size=10;position=0.3;position2=0.5;base=14;fontFamily=Fira Code;html=1;whiteSpace=wrap;fillColor=#99004D;" parent="1" vertex="1">
          <mxGeometry x="445" y="285" width="34" height="25" as="geometry" />
        </mxCell>
        <mxCell id="1nYw9ThHLsexZ4AbJdqg-186" value="000" style="shape=callout;perimeter=calloutPerimeter;size=10;position=0.3;position2=0.5;base=14;fontFamily=Fira Code;html=1;whiteSpace=wrap;fillColor=#99004D;" parent="1" vertex="1">
          <mxGeometry x="428" y="202" width="34" height="25" as="geometry" />
        </mxCell>
        <mxCell id="1nYw9ThHLsexZ4AbJdqg-187" value="0000" style="shape=callout;perimeter=calloutPerimeter;size=10;position=0.3;position2=0.5;base=14;fontFamily=Fira Code;html=1;whiteSpace=wrap;fillColor=#99004D;" parent="1" vertex="1">
          <mxGeometry x="445" y="95" width="34" height="25" as="geometry" />
        </mxCell>
        <mxCell id="1nYw9ThHLsexZ4AbJdqg-188" value="0000" style="shape=callout;perimeter=calloutPerimeter;size=10;position=0.3;position2=0.5;base=14;fontFamily=Fira Code;html=1;whiteSpace=wrap;fillColor=#99004D;" parent="1" vertex="1">
          <mxGeometry x="163.5" y="95" width="34" height="25" as="geometry" />
        </mxCell>
        <mxCell id="1nYw9ThHLsexZ4AbJdqg-189" value="0000" style="shape=callout;perimeter=calloutPerimeter;size=10;position=0.3;position2=0.5;base=14;fontFamily=Fira Code;html=1;whiteSpace=wrap;fillColor=#99004D;" parent="1" vertex="1">
          <mxGeometry x="163.5" y="230" width="34" height="25" as="geometry" />
        </mxCell>
        <mxCell id="1nYw9ThHLsexZ4AbJdqg-190" value="0000" style="shape=callout;perimeter=calloutPerimeter;size=10;position=0.3;position2=0.5;base=14;fontFamily=Fira Code;html=1;whiteSpace=wrap;fillColor=#99004D;" parent="1" vertex="1">
          <mxGeometry x="163.5" y="285" width="34" height="25" as="geometry" />
        </mxCell>
        <mxCell id="1nYw9ThHLsexZ4AbJdqg-191" value="0000" style="shape=callout;perimeter=calloutPerimeter;size=10;position=0.3;position2=0.5;base=14;fontFamily=Fira Code;html=1;whiteSpace=wrap;fillColor=#99004D;" parent="1" vertex="1">
          <mxGeometry x="163.5" y="355" width="34" height="25" as="geometry" />
        </mxCell>
        <mxCell id="1nYw9ThHLsexZ4AbJdqg-192" value="0000" style="shape=callout;perimeter=calloutPerimeter;size=10;position=0.3;position2=0.5;base=14;fontFamily=Fira Code;html=1;whiteSpace=wrap;fillColor=#99004D;" parent="1" vertex="1">
          <mxGeometry x="163.5" y="395" width="34" height="25" as="geometry" />
        </mxCell>
        <mxCell id="1nYw9ThHLsexZ4AbJdqg-199" value="0" style="shape=callout;perimeter=calloutPerimeter;size=10;position=0.3;position2=0.5;base=14;fontFamily=Fira Code;html=1;whiteSpace=wrap;fillColor=#99004D;" parent="1" vertex="1">
          <mxGeometry x="123" y="415" width="34" height="25" as="geometry" />
        </mxCell>
        <mxCell id="1nYw9ThHLsexZ4AbJdqg-201" value="000" style="rounded=0;whiteSpace=wrap;html=1;fontFamily=Fira Code;fillColor=#FF8000;strokeColor=#E6E6E6;" parent="1" vertex="1">
          <mxGeometry x="375" y="210" width="35" height="15" as="geometry" />
        </mxCell>
        <mxCell id="1nYw9ThHLsexZ4AbJdqg-202" value="0000" style="rounded=0;whiteSpace=wrap;html=1;fontFamily=Fira Code;fillColor=#FF8000;strokeColor=#E6E6E6;" parent="1" vertex="1">
          <mxGeometry x="375" y="280" width="35" height="15" as="geometry" />
        </mxCell>
        <mxCell id="1nYw9ThHLsexZ4AbJdqg-203" value="0000" style="rounded=0;whiteSpace=wrap;html=1;fontFamily=Fira Code;fillColor=#FF8000;strokeColor=#E6E6E6;" parent="1" vertex="1">
          <mxGeometry x="375" y="350" width="35" height="15" as="geometry" />
        </mxCell>
        <mxCell id="1nYw9ThHLsexZ4AbJdqg-204" value="0000" style="rounded=0;whiteSpace=wrap;html=1;fontFamily=Fira Code;fillColor=#FF8000;strokeColor=#E6E6E6;" parent="1" vertex="1">
          <mxGeometry x="375" y="430" width="35" height="15" as="geometry" />
        </mxCell>
        <mxCell id="1nYw9ThHLsexZ4AbJdqg-205" value="0000" style="rounded=0;whiteSpace=wrap;html=1;fontFamily=Fira Code;fillColor=#FF8000;strokeColor=#E6E6E6;" parent="1" vertex="1">
          <mxGeometry x="375" y="510" width="35" height="15" as="geometry" />
        </mxCell>
        <mxCell id="1nYw9ThHLsexZ4AbJdqg-206" value="0000" style="rounded=0;whiteSpace=wrap;html=1;fontFamily=Fira Code;fillColor=#FF8000;strokeColor=#E6E6E6;" parent="1" vertex="1">
          <mxGeometry x="375" y="580" width="35" height="15" as="geometry" />
        </mxCell>
        <mxCell id="1nYw9ThHLsexZ4AbJdqg-207" value="0000" style="rounded=0;whiteSpace=wrap;html=1;fontFamily=Fira Code;fillColor=#FF8000;strokeColor=#E6E6E6;" parent="1" vertex="1">
          <mxGeometry x="375" y="650" width="35" height="15" as="geometry" />
        </mxCell>
        <mxCell id="1nYw9ThHLsexZ4AbJdqg-208" value="0000" style="rounded=0;whiteSpace=wrap;html=1;fontFamily=Fira Code;fillColor=#FF8000;strokeColor=#E6E6E6;" parent="1" vertex="1">
          <mxGeometry x="375" y="720" width="35" height="15" as="geometry" />
        </mxCell>
        <mxCell id="1nYw9ThHLsexZ4AbJdqg-210" value="" style="triangle;whiteSpace=wrap;html=1;fillColor=#333333;" parent="1" vertex="1">
          <mxGeometry x="271" y="218.75" width="15" height="12.5" as="geometry" />
        </mxCell>
        <mxCell id="1nYw9ThHLsexZ4AbJdqg-211" value="" style="triangle;whiteSpace=wrap;html=1;fillColor=#333333;" parent="1" vertex="1">
          <mxGeometry x="271" y="288.75" width="15" height="12.5" as="geometry" />
        </mxCell>
        <mxCell id="1nYw9ThHLsexZ4AbJdqg-212" value="" style="triangle;whiteSpace=wrap;html=1;fillColor=#333333;" parent="1" vertex="1">
          <mxGeometry x="271" y="318.75" width="15" height="12.5" as="geometry" />
        </mxCell>
        <mxCell id="1nYw9ThHLsexZ4AbJdqg-213" value="" style="triangle;whiteSpace=wrap;html=1;fillColor=#333333;" parent="1" vertex="1">
          <mxGeometry x="271" y="358.75" width="15" height="12.5" as="geometry" />
        </mxCell>
        <mxCell id="1nYw9ThHLsexZ4AbJdqg-214" value="" style="triangle;whiteSpace=wrap;html=1;fillColor=#333333;" parent="1" vertex="1">
          <mxGeometry x="271" y="398.75" width="15" height="12.5" as="geometry" />
        </mxCell>
        <mxCell id="1nYw9ThHLsexZ4AbJdqg-215" value="" style="triangle;whiteSpace=wrap;html=1;fillColor=#333333;" parent="1" vertex="1">
          <mxGeometry x="275" y="518.75" width="15" height="12.5" as="geometry" />
        </mxCell>
        <mxCell id="1nYw9ThHLsexZ4AbJdqg-216" value="" style="triangle;whiteSpace=wrap;html=1;fillColor=#333333;" parent="1" vertex="1">
          <mxGeometry x="275" y="588.75" width="15" height="12.5" as="geometry" />
        </mxCell>
        <mxCell id="1nYw9ThHLsexZ4AbJdqg-217" value="" style="triangle;whiteSpace=wrap;html=1;fillColor=#333333;" parent="1" vertex="1">
          <mxGeometry x="275" y="658.75" width="15" height="12.5" as="geometry" />
        </mxCell>
        <mxCell id="1nYw9ThHLsexZ4AbJdqg-218" value="" style="triangle;whiteSpace=wrap;html=1;fillColor=#333333;" parent="1" vertex="1">
          <mxGeometry x="274" y="728.75" width="15" height="12.5" as="geometry" />
        </mxCell>
        <mxCell id="1nYw9ThHLsexZ4AbJdqg-221" value="" style="triangle;whiteSpace=wrap;html=1;fillColor=#333333;" parent="1" vertex="1">
          <mxGeometry x="261" y="73.75" width="15" height="12.5" as="geometry" />
        </mxCell>
        <mxCell id="1nYw9ThHLsexZ4AbJdqg-222" value="" style="rhombus;whiteSpace=wrap;html=1;fillColor=#00FF00;" parent="1" vertex="1">
          <mxGeometry x="530" y="112.5" width="15" height="15" as="geometry" />
        </mxCell>
        <mxCell id="1nYw9ThHLsexZ4AbJdqg-223" value="" style="rhombus;whiteSpace=wrap;html=1;fillColor=#333333;" parent="1" vertex="1">
          <mxGeometry x="530" y="232.5" width="15" height="15" as="geometry" />
        </mxCell>
        <mxCell id="1nYw9ThHLsexZ4AbJdqg-224" value="" style="rhombus;whiteSpace=wrap;html=1;fillColor=#333333;" parent="1" vertex="1">
          <mxGeometry x="530" y="302.5" width="15" height="15" as="geometry" />
        </mxCell>
        <mxCell id="1nYw9ThHLsexZ4AbJdqg-225" value="" style="rhombus;whiteSpace=wrap;html=1;fillColor=#333333;" parent="1" vertex="1">
          <mxGeometry x="530" y="372.5" width="15" height="15" as="geometry" />
        </mxCell>
        <mxCell id="1nYw9ThHLsexZ4AbJdqg-226" value="" style="rhombus;whiteSpace=wrap;html=1;fillColor=#333333;" parent="1" vertex="1">
          <mxGeometry x="530" y="452.5" width="15" height="15" as="geometry" />
        </mxCell>
        <mxCell id="1nYw9ThHLsexZ4AbJdqg-227" value="" style="rhombus;whiteSpace=wrap;html=1;fillColor=#333333;" parent="1" vertex="1">
          <mxGeometry x="530" y="532.5" width="15" height="15" as="geometry" />
        </mxCell>
        <mxCell id="1nYw9ThHLsexZ4AbJdqg-228" value="" style="rhombus;whiteSpace=wrap;html=1;fillColor=#333333;" parent="1" vertex="1">
          <mxGeometry x="530" y="602.5" width="15" height="15" as="geometry" />
        </mxCell>
        <mxCell id="1nYw9ThHLsexZ4AbJdqg-229" value="" style="rhombus;whiteSpace=wrap;html=1;fillColor=#333333;" parent="1" vertex="1">
          <mxGeometry x="530" y="672.5" width="15" height="15" as="geometry" />
        </mxCell>
        <mxCell id="1nYw9ThHLsexZ4AbJdqg-234" value="" style="shape=callout;perimeter=calloutPerimeter;size=9;position=0.24;position2=0.5;base=9;fontFamily=Fira Code;whiteSpace=wrap;fillColor=#99004D;rotation=90;html=1;" parent="1" vertex="1">
          <mxGeometry x="586.25" y="760" width="17.5" height="34.25" as="geometry" />
        </mxCell>
        <mxCell id="1nYw9ThHLsexZ4AbJdqg-235" value="0" style="text;html=1;strokeColor=none;fillColor=none;align=center;verticalAlign=middle;whiteSpace=wrap;rounded=0;fontFamily=Fira Code;" parent="1" vertex="1">
          <mxGeometry x="590" y="762.13" width="20" height="30" as="geometry" />
        </mxCell>
        <mxCell id="1nYw9ThHLsexZ4AbJdqg-319" style="edgeStyle=orthogonalEdgeStyle;rounded=0;orthogonalLoop=1;jettySize=auto;html=1;exitX=0;exitY=0.5;exitDx=0;exitDy=0;entryX=0.049;entryY=0.009;entryDx=0;entryDy=0;entryPerimeter=0;strokeColor=#E6E6E6;startArrow=classic;startFill=1;endArrow=none;endFill=0;" parent="1" source="wNTjG9rhsJwIAEXNJy5a-70" target="1nYw9ThHLsexZ4AbJdqg-315" edge="1">
          <mxGeometry relative="1" as="geometry">
            <Array as="points">
              <mxPoint x="130" y="980" />
              <mxPoint x="130" y="925" />
              <mxPoint x="390" y="925" />
              <mxPoint x="390" y="941" />
            </Array>
            <mxPoint x="150" y="980" as="sourcePoint" />
          </mxGeometry>
        </mxCell>
        <mxCell id="1nYw9ThHLsexZ4AbJdqg-238" value="SC" style="rounded=0;whiteSpace=wrap;html=1;fillColor=#331A00;strokeColor=#FFFFFF;fontColor=#E6E6E6;" parent="1" vertex="1">
          <mxGeometry x="160" y="965" width="75" height="60" as="geometry" />
        </mxCell>
        <mxCell id="1nYw9ThHLsexZ4AbJdqg-241" value="==" style="rounded=0;whiteSpace=wrap;html=1;fontSize=18;spacingRight=19;" parent="1" vertex="1">
          <mxGeometry x="160" y="1055" width="75" height="60" as="geometry" />
        </mxCell>
        <mxCell id="1nYw9ThHLsexZ4AbJdqg-242" value="" style="shape=flexArrow;endArrow=classic;html=1;rounded=0;strokeColor=#E6E6E6;width=7.586206896551724;endSize=3.910344827586207;endWidth=10.630202140309157;" parent="1" edge="1">
          <mxGeometry width="50" height="50" relative="1" as="geometry">
            <mxPoint x="55" y="1065" as="sourcePoint" />
            <mxPoint x="160" y="1065" as="targetPoint" />
          </mxGeometry>
        </mxCell>
        <mxCell id="1nYw9ThHLsexZ4AbJdqg-243" value="" style="endArrow=none;html=1;rounded=0;strokeColor=#E6E6E6;startArrow=oval;startFill=1;endFill=0;" parent="1" edge="1">
          <mxGeometry width="50" height="50" relative="1" as="geometry">
            <mxPoint x="477.82" y="380" as="sourcePoint" />
            <mxPoint x="477.82" y="780" as="targetPoint" />
          </mxGeometry>
        </mxCell>
        <mxCell id="1nYw9ThHLsexZ4AbJdqg-244" value="" style="curved=1;endArrow=none;html=1;rounded=0;endFill=0;strokeColor=#E6E6E6;" parent="1" edge="1">
          <mxGeometry width="50" height="50" relative="1" as="geometry">
            <mxPoint x="479" y="850" as="sourcePoint" />
            <mxPoint x="479" y="780" as="targetPoint" />
            <Array as="points">
              <mxPoint x="459" y="850" />
              <mxPoint x="459" y="780" />
            </Array>
          </mxGeometry>
        </mxCell>
        <mxCell id="1nYw9ThHLsexZ4AbJdqg-247" value="" style="endArrow=none;html=1;rounded=0;strokeColor=#E6E6E6;endFill=0;" parent="1" edge="1">
          <mxGeometry width="50" height="50" relative="1" as="geometry">
            <mxPoint x="480" y="850" as="sourcePoint" />
            <mxPoint x="55" y="1065" as="targetPoint" />
            <Array as="points">
              <mxPoint x="480" y="860" />
              <mxPoint x="20" y="860" />
              <mxPoint x="20" y="1065" />
            </Array>
          </mxGeometry>
        </mxCell>
        <mxCell id="1nYw9ThHLsexZ4AbJdqg-248" value="" style="endArrow=none;html=1;rounded=0;strokeColor=#E6E6E6;" parent="1" edge="1">
          <mxGeometry width="50" height="50" relative="1" as="geometry">
            <mxPoint x="130" y="1075" as="sourcePoint" />
            <mxPoint x="140" y="1055" as="targetPoint" />
          </mxGeometry>
        </mxCell>
        <mxCell id="1nYw9ThHLsexZ4AbJdqg-249" value="16bits" style="text;html=1;strokeColor=none;fillColor=none;align=center;verticalAlign=middle;whiteSpace=wrap;rounded=0;fontColor=#E6E6E6;fontSize=10;" parent="1" vertex="1">
          <mxGeometry x="110" y="1035" width="60" height="30" as="geometry" />
        </mxCell>
        <mxCell id="1nYw9ThHLsexZ4AbJdqg-250" value="" style="shape=flexArrow;endArrow=classic;html=1;rounded=0;strokeColor=#E6E6E6;width=7.586206896551724;endSize=3.910344827586207;endWidth=10.630202140309157;" parent="1" edge="1">
          <mxGeometry width="50" height="50" relative="1" as="geometry">
            <mxPoint x="140" y="1100" as="sourcePoint" />
            <mxPoint x="160" y="1100" as="targetPoint" />
          </mxGeometry>
        </mxCell>
        <mxCell id="1nYw9ThHLsexZ4AbJdqg-251" value="&#39;0000&#39;" style="text;html=1;strokeColor=none;fillColor=none;align=center;verticalAlign=middle;whiteSpace=wrap;rounded=0;fontColor=#E6E6E6;fontFamily=Fira Code;" parent="1" vertex="1">
          <mxGeometry x="85" y="1085" width="60" height="30" as="geometry" />
        </mxCell>
        <mxCell id="1nYw9ThHLsexZ4AbJdqg-252" value="CLK" style="endArrow=block;html=1;rounded=0;endFill=0;endSize=13;strokeColor=#E6E6E6;labelBackgroundColor=#1A1A1A;fontColor=#E6E6E6;" parent="1" edge="1">
          <mxGeometry x="-1" width="50" height="50" relative="1" as="geometry">
            <mxPoint x="50" y="1015" as="sourcePoint" />
            <mxPoint x="175" y="1015" as="targetPoint" />
            <mxPoint as="offset" />
          </mxGeometry>
        </mxCell>
        <mxCell id="1nYw9ThHLsexZ4AbJdqg-259" value="3bits" style="text;html=1;strokeColor=none;fillColor=none;align=center;verticalAlign=middle;whiteSpace=wrap;rounded=0;fontColor=#E6E6E6;fontSize=10;" parent="1" vertex="1">
          <mxGeometry x="220" y="950" width="60" height="30" as="geometry" />
        </mxCell>
        <mxCell id="1nYw9ThHLsexZ4AbJdqg-276" value="" style="group" parent="1" vertex="1" connectable="0">
          <mxGeometry x="240" y="941" width="120" height="155" as="geometry" />
        </mxCell>
        <mxCell id="1nYw9ThHLsexZ4AbJdqg-255" value="&lt;div&gt;Seq&lt;/div&gt;&lt;div&gt;Dec&lt;/div&gt;&lt;div&gt;&lt;font face=&quot;Fira Code&quot;&gt;3-&amp;gt;8&lt;/font&gt;&lt;br&gt;&lt;/div&gt;" style="rounded=0;whiteSpace=wrap;html=1;fillColor=#330000;strokeColor=#E6E6E6;fontColor=#E6E6E6;spacingRight=34;" parent="1nYw9ThHLsexZ4AbJdqg-276" vertex="1">
          <mxGeometry x="40" width="80" height="155" as="geometry" />
        </mxCell>
        <mxCell id="1nYw9ThHLsexZ4AbJdqg-257" value="" style="shape=flexArrow;endArrow=classic;html=1;rounded=0;exitX=1;exitY=0.25;exitDx=0;exitDy=0;entryX=0;entryY=0.25;entryDx=0;entryDy=0;strokeColor=#E6E6E6;width=5.666666666666667;endSize=3.9933333333333336;" parent="1nYw9ThHLsexZ4AbJdqg-276" source="1nYw9ThHLsexZ4AbJdqg-238" target="1nYw9ThHLsexZ4AbJdqg-255" edge="1">
          <mxGeometry width="50" height="50" relative="1" as="geometry">
            <mxPoint x="55" y="99" as="sourcePoint" />
            <mxPoint x="105" y="49" as="targetPoint" />
          </mxGeometry>
        </mxCell>
        <mxCell id="1nYw9ThHLsexZ4AbJdqg-258" value="" style="endArrow=none;html=1;rounded=0;strokeColor=#E6E6E6;" parent="1nYw9ThHLsexZ4AbJdqg-276" edge="1">
          <mxGeometry width="50" height="50" relative="1" as="geometry">
            <mxPoint y="49" as="sourcePoint" />
            <mxPoint x="10" y="29" as="targetPoint" />
          </mxGeometry>
        </mxCell>
        <mxCell id="1nYw9ThHLsexZ4AbJdqg-260" value="T&lt;sub&gt;0&lt;/sub&gt;" style="text;html=1;strokeColor=none;fillColor=none;align=right;verticalAlign=middle;whiteSpace=wrap;rounded=0;fontColor=#E6E6E6;" parent="1nYw9ThHLsexZ4AbJdqg-276" vertex="1">
          <mxGeometry x="95" width="25" height="19" as="geometry" />
        </mxCell>
        <mxCell id="1nYw9ThHLsexZ4AbJdqg-261" value="T&lt;sub&gt;1&lt;/sub&gt;" style="text;html=1;strokeColor=none;fillColor=none;align=right;verticalAlign=middle;whiteSpace=wrap;rounded=0;fontColor=#E6E6E6;" parent="1nYw9ThHLsexZ4AbJdqg-276" vertex="1">
          <mxGeometry x="95" y="20" width="25" height="19" as="geometry" />
        </mxCell>
        <mxCell id="1nYw9ThHLsexZ4AbJdqg-262" value="T&lt;sub&gt;2&lt;/sub&gt;" style="text;html=1;strokeColor=none;fillColor=none;align=right;verticalAlign=middle;whiteSpace=wrap;rounded=0;fontColor=#E6E6E6;" parent="1nYw9ThHLsexZ4AbJdqg-276" vertex="1">
          <mxGeometry x="95" y="39" width="25" height="19" as="geometry" />
        </mxCell>
        <mxCell id="1nYw9ThHLsexZ4AbJdqg-263" value="T&lt;sub&gt;3&lt;/sub&gt;" style="text;html=1;strokeColor=none;fillColor=none;align=right;verticalAlign=middle;whiteSpace=wrap;rounded=0;fontColor=#E6E6E6;" parent="1nYw9ThHLsexZ4AbJdqg-276" vertex="1">
          <mxGeometry x="95" y="58" width="25" height="19" as="geometry" />
        </mxCell>
        <mxCell id="1nYw9ThHLsexZ4AbJdqg-264" value="T&lt;sub&gt;4&lt;/sub&gt;" style="text;html=1;strokeColor=none;fillColor=none;align=right;verticalAlign=middle;whiteSpace=wrap;rounded=0;fontColor=#E6E6E6;" parent="1nYw9ThHLsexZ4AbJdqg-276" vertex="1">
          <mxGeometry x="95" y="77" width="25" height="19" as="geometry" />
        </mxCell>
        <mxCell id="1nYw9ThHLsexZ4AbJdqg-265" value="T&lt;sub&gt;5&lt;/sub&gt;" style="text;html=1;strokeColor=none;fillColor=none;align=right;verticalAlign=middle;whiteSpace=wrap;rounded=0;fontColor=#E6E6E6;" parent="1nYw9ThHLsexZ4AbJdqg-276" vertex="1">
          <mxGeometry x="95" y="96" width="25" height="19" as="geometry" />
        </mxCell>
        <mxCell id="1nYw9ThHLsexZ4AbJdqg-266" value="T&lt;sub&gt;6&lt;/sub&gt;" style="text;html=1;strokeColor=none;fillColor=none;align=right;verticalAlign=middle;whiteSpace=wrap;rounded=0;fontColor=#E6E6E6;" parent="1nYw9ThHLsexZ4AbJdqg-276" vertex="1">
          <mxGeometry x="95" y="115" width="25" height="19" as="geometry" />
        </mxCell>
        <mxCell id="1nYw9ThHLsexZ4AbJdqg-267" value="T&lt;sub&gt;7&lt;/sub&gt;" style="text;html=1;strokeColor=none;fillColor=none;align=right;verticalAlign=middle;whiteSpace=wrap;rounded=0;fontColor=#E6E6E6;" parent="1nYw9ThHLsexZ4AbJdqg-276" vertex="1">
          <mxGeometry x="95" y="134" width="25" height="19" as="geometry" />
        </mxCell>
        <mxCell id="1nYw9ThHLsexZ4AbJdqg-268" value="" style="rhombus;whiteSpace=wrap;html=1;fillColor=#00FF00;" parent="1nYw9ThHLsexZ4AbJdqg-276" vertex="1">
          <mxGeometry x="89" y="2" width="15" height="15" as="geometry" />
        </mxCell>
        <mxCell id="1nYw9ThHLsexZ4AbJdqg-269" value="" style="rhombus;whiteSpace=wrap;html=1;fillColor=#333333;" parent="1nYw9ThHLsexZ4AbJdqg-276" vertex="1">
          <mxGeometry x="89" y="22" width="15" height="15" as="geometry" />
        </mxCell>
        <mxCell id="1nYw9ThHLsexZ4AbJdqg-270" value="" style="rhombus;whiteSpace=wrap;html=1;fillColor=#333333;" parent="1nYw9ThHLsexZ4AbJdqg-276" vertex="1">
          <mxGeometry x="89" y="41" width="15" height="15" as="geometry" />
        </mxCell>
        <mxCell id="1nYw9ThHLsexZ4AbJdqg-271" value="" style="rhombus;whiteSpace=wrap;html=1;fillColor=#333333;" parent="1nYw9ThHLsexZ4AbJdqg-276" vertex="1">
          <mxGeometry x="89" y="60" width="15" height="15" as="geometry" />
        </mxCell>
        <mxCell id="1nYw9ThHLsexZ4AbJdqg-272" value="" style="rhombus;whiteSpace=wrap;html=1;fillColor=#333333;" parent="1nYw9ThHLsexZ4AbJdqg-276" vertex="1">
          <mxGeometry x="89" y="79" width="15" height="15" as="geometry" />
        </mxCell>
        <mxCell id="1nYw9ThHLsexZ4AbJdqg-273" value="" style="rhombus;whiteSpace=wrap;html=1;fillColor=#333333;" parent="1nYw9ThHLsexZ4AbJdqg-276" vertex="1">
          <mxGeometry x="89" y="98" width="15" height="15" as="geometry" />
        </mxCell>
        <mxCell id="1nYw9ThHLsexZ4AbJdqg-274" value="" style="rhombus;whiteSpace=wrap;html=1;fillColor=#333333;" parent="1nYw9ThHLsexZ4AbJdqg-276" vertex="1">
          <mxGeometry x="89" y="117" width="15" height="15" as="geometry" />
        </mxCell>
        <mxCell id="1nYw9ThHLsexZ4AbJdqg-275" value="" style="rhombus;whiteSpace=wrap;html=1;fillColor=#333333;" parent="1nYw9ThHLsexZ4AbJdqg-276" vertex="1">
          <mxGeometry x="89" y="136" width="15" height="15" as="geometry" />
        </mxCell>
        <mxCell id="1nYw9ThHLsexZ4AbJdqg-305" value="" style="endArrow=none;html=1;rounded=0;strokeColor=#E6E6E6;" parent="1" edge="1">
          <mxGeometry width="50" height="50" relative="1" as="geometry">
            <mxPoint x="360" y="950" as="sourcePoint" />
            <mxPoint x="380" y="950" as="targetPoint" />
          </mxGeometry>
        </mxCell>
        <mxCell id="1nYw9ThHLsexZ4AbJdqg-306" value="" style="endArrow=none;html=1;rounded=0;strokeColor=#E6E6E6;" parent="1" edge="1">
          <mxGeometry width="50" height="50" relative="1" as="geometry">
            <mxPoint x="360" y="970" as="sourcePoint" />
            <mxPoint x="380" y="970" as="targetPoint" />
          </mxGeometry>
        </mxCell>
        <mxCell id="1nYw9ThHLsexZ4AbJdqg-308" value="" style="endArrow=none;html=1;rounded=0;strokeColor=#E6E6E6;" parent="1" edge="1">
          <mxGeometry width="50" height="50" relative="1" as="geometry">
            <mxPoint x="360" y="990" as="sourcePoint" />
            <mxPoint x="380" y="990" as="targetPoint" />
          </mxGeometry>
        </mxCell>
        <mxCell id="1nYw9ThHLsexZ4AbJdqg-309" value="" style="endArrow=none;html=1;rounded=0;strokeColor=#E6E6E6;" parent="1" edge="1">
          <mxGeometry width="50" height="50" relative="1" as="geometry">
            <mxPoint x="361" y="1010" as="sourcePoint" />
            <mxPoint x="381" y="1010" as="targetPoint" />
          </mxGeometry>
        </mxCell>
        <mxCell id="1nYw9ThHLsexZ4AbJdqg-310" value="" style="endArrow=none;html=1;rounded=0;strokeColor=#E6E6E6;" parent="1" edge="1">
          <mxGeometry width="50" height="50" relative="1" as="geometry">
            <mxPoint x="361" y="1025" as="sourcePoint" />
            <mxPoint x="381" y="1025" as="targetPoint" />
          </mxGeometry>
        </mxCell>
        <mxCell id="1nYw9ThHLsexZ4AbJdqg-311" value="" style="endArrow=none;html=1;rounded=0;strokeColor=#E6E6E6;" parent="1" edge="1">
          <mxGeometry width="50" height="50" relative="1" as="geometry">
            <mxPoint x="360" y="1045" as="sourcePoint" />
            <mxPoint x="380" y="1045" as="targetPoint" />
          </mxGeometry>
        </mxCell>
        <mxCell id="1nYw9ThHLsexZ4AbJdqg-312" value="" style="endArrow=none;html=1;rounded=0;strokeColor=#E6E6E6;" parent="1" edge="1">
          <mxGeometry width="50" height="50" relative="1" as="geometry">
            <mxPoint x="360" y="1065" as="sourcePoint" />
            <mxPoint x="380" y="1065" as="targetPoint" />
          </mxGeometry>
        </mxCell>
        <mxCell id="1nYw9ThHLsexZ4AbJdqg-313" value="" style="endArrow=none;html=1;rounded=0;strokeColor=#E6E6E6;" parent="1" edge="1">
          <mxGeometry width="50" height="50" relative="1" as="geometry">
            <mxPoint x="360" y="1081" as="sourcePoint" />
            <mxPoint x="380" y="1081" as="targetPoint" />
          </mxGeometry>
        </mxCell>
        <mxCell id="1nYw9ThHLsexZ4AbJdqg-314" value="" style="group" parent="1" vertex="1" connectable="0">
          <mxGeometry x="585" y="940" width="135" height="155" as="geometry" />
        </mxCell>
        <mxCell id="1nYw9ThHLsexZ4AbJdqg-278" value="&lt;div&gt;Inc&lt;/div&gt;&lt;div&gt;Dec&lt;/div&gt;&lt;div&gt;&lt;font face=&quot;Fira Code&quot;&gt;3-&amp;gt;8&lt;/font&gt;&lt;br&gt;&lt;/div&gt;" style="rounded=0;whiteSpace=wrap;html=1;fillColor=#330000;strokeColor=#E6E6E6;fontColor=#E6E6E6;spacingRight=0;flipH=1;flipV=1;spacingLeft=30;" parent="1nYw9ThHLsexZ4AbJdqg-314" vertex="1">
          <mxGeometry x="55" width="80" height="155" as="geometry" />
        </mxCell>
        <mxCell id="1nYw9ThHLsexZ4AbJdqg-281" value="0" style="text;html=1;strokeColor=none;fillColor=none;align=left;verticalAlign=middle;whiteSpace=wrap;rounded=0;fontColor=#E6E6E6;" parent="1nYw9ThHLsexZ4AbJdqg-314" vertex="1">
          <mxGeometry x="55" width="25" height="19" as="geometry" />
        </mxCell>
        <mxCell id="1nYw9ThHLsexZ4AbJdqg-282" value="1" style="text;html=1;strokeColor=none;fillColor=none;align=left;verticalAlign=middle;whiteSpace=wrap;rounded=0;fontColor=#E6E6E6;" parent="1nYw9ThHLsexZ4AbJdqg-314" vertex="1">
          <mxGeometry x="55" y="20" width="25" height="19" as="geometry" />
        </mxCell>
        <mxCell id="1nYw9ThHLsexZ4AbJdqg-283" value="2" style="text;html=1;strokeColor=none;fillColor=none;align=left;verticalAlign=middle;whiteSpace=wrap;rounded=0;fontColor=#E6E6E6;" parent="1nYw9ThHLsexZ4AbJdqg-314" vertex="1">
          <mxGeometry x="55" y="39" width="25" height="19" as="geometry" />
        </mxCell>
        <mxCell id="1nYw9ThHLsexZ4AbJdqg-284" value="3" style="text;html=1;strokeColor=none;fillColor=none;align=left;verticalAlign=middle;whiteSpace=wrap;rounded=0;fontColor=#E6E6E6;" parent="1nYw9ThHLsexZ4AbJdqg-314" vertex="1">
          <mxGeometry x="55" y="58" width="25" height="19" as="geometry" />
        </mxCell>
        <mxCell id="1nYw9ThHLsexZ4AbJdqg-285" value="4" style="text;html=1;strokeColor=none;fillColor=none;align=left;verticalAlign=middle;whiteSpace=wrap;rounded=0;fontColor=#E6E6E6;" parent="1nYw9ThHLsexZ4AbJdqg-314" vertex="1">
          <mxGeometry x="55" y="77" width="25" height="19" as="geometry" />
        </mxCell>
        <mxCell id="1nYw9ThHLsexZ4AbJdqg-286" value="5" style="text;html=1;strokeColor=none;fillColor=none;align=left;verticalAlign=middle;whiteSpace=wrap;rounded=0;fontColor=#E6E6E6;" parent="1nYw9ThHLsexZ4AbJdqg-314" vertex="1">
          <mxGeometry x="55" y="96" width="25" height="19" as="geometry" />
        </mxCell>
        <mxCell id="1nYw9ThHLsexZ4AbJdqg-287" value="6" style="text;html=1;strokeColor=none;fillColor=none;align=left;verticalAlign=middle;whiteSpace=wrap;rounded=0;fontColor=#E6E6E6;" parent="1nYw9ThHLsexZ4AbJdqg-314" vertex="1">
          <mxGeometry x="55" y="115" width="25" height="19" as="geometry" />
        </mxCell>
        <mxCell id="1nYw9ThHLsexZ4AbJdqg-288" value="7" style="text;html=1;strokeColor=none;fillColor=none;align=left;verticalAlign=middle;whiteSpace=wrap;rounded=0;fontColor=#E6E6E6;" parent="1nYw9ThHLsexZ4AbJdqg-314" vertex="1">
          <mxGeometry x="55" y="134" width="25" height="19" as="geometry" />
        </mxCell>
        <mxCell id="1nYw9ThHLsexZ4AbJdqg-289" value="" style="rhombus;whiteSpace=wrap;html=1;fillColor=#00FF00;" parent="1nYw9ThHLsexZ4AbJdqg-314" vertex="1">
          <mxGeometry x="67" y="2" width="15" height="15" as="geometry" />
        </mxCell>
        <mxCell id="1nYw9ThHLsexZ4AbJdqg-290" value="" style="rhombus;whiteSpace=wrap;html=1;fillColor=#333333;" parent="1nYw9ThHLsexZ4AbJdqg-314" vertex="1">
          <mxGeometry x="67" y="22" width="15" height="15" as="geometry" />
        </mxCell>
        <mxCell id="1nYw9ThHLsexZ4AbJdqg-291" value="" style="rhombus;whiteSpace=wrap;html=1;fillColor=#333333;" parent="1nYw9ThHLsexZ4AbJdqg-314" vertex="1">
          <mxGeometry x="67" y="41" width="15" height="15" as="geometry" />
        </mxCell>
        <mxCell id="1nYw9ThHLsexZ4AbJdqg-292" value="" style="rhombus;whiteSpace=wrap;html=1;fillColor=#333333;" parent="1nYw9ThHLsexZ4AbJdqg-314" vertex="1">
          <mxGeometry x="67" y="60" width="15" height="15" as="geometry" />
        </mxCell>
        <mxCell id="1nYw9ThHLsexZ4AbJdqg-293" value="" style="rhombus;whiteSpace=wrap;html=1;fillColor=#333333;" parent="1nYw9ThHLsexZ4AbJdqg-314" vertex="1">
          <mxGeometry x="67" y="79" width="15" height="15" as="geometry" />
        </mxCell>
        <mxCell id="1nYw9ThHLsexZ4AbJdqg-294" value="" style="rhombus;whiteSpace=wrap;html=1;fillColor=#333333;" parent="1nYw9ThHLsexZ4AbJdqg-314" vertex="1">
          <mxGeometry x="67" y="98" width="15" height="15" as="geometry" />
        </mxCell>
        <mxCell id="1nYw9ThHLsexZ4AbJdqg-295" value="" style="rhombus;whiteSpace=wrap;html=1;fillColor=#333333;" parent="1nYw9ThHLsexZ4AbJdqg-314" vertex="1">
          <mxGeometry x="67" y="117" width="15" height="15" as="geometry" />
        </mxCell>
        <mxCell id="1nYw9ThHLsexZ4AbJdqg-296" value="" style="rhombus;whiteSpace=wrap;html=1;fillColor=#333333;" parent="1nYw9ThHLsexZ4AbJdqg-314" vertex="1">
          <mxGeometry x="67" y="136" width="15" height="15" as="geometry" />
        </mxCell>
        <mxCell id="1nYw9ThHLsexZ4AbJdqg-297" value="Load" style="endArrow=none;html=1;rounded=0;strokeColor=#E6E6E6;labelBackgroundColor=#333333;fontColor=#E6E6E6;" parent="1nYw9ThHLsexZ4AbJdqg-314" edge="1">
          <mxGeometry width="50" height="50" relative="1" as="geometry">
            <mxPoint x="55" y="9.330000000000041" as="sourcePoint" />
            <mxPoint y="9.330000000000041" as="targetPoint" />
          </mxGeometry>
        </mxCell>
        <mxCell id="1nYw9ThHLsexZ4AbJdqg-298" value="Store" style="endArrow=none;html=1;rounded=0;strokeColor=#E6E6E6;labelBackgroundColor=#333333;fontColor=#E6E6E6;" parent="1nYw9ThHLsexZ4AbJdqg-314" edge="1">
          <mxGeometry width="50" height="50" relative="1" as="geometry">
            <mxPoint x="55" y="29.33000000000004" as="sourcePoint" />
            <mxPoint y="29.33000000000004" as="targetPoint" />
          </mxGeometry>
        </mxCell>
        <mxCell id="1nYw9ThHLsexZ4AbJdqg-299" value="Add" style="endArrow=none;html=1;rounded=0;strokeColor=#E6E6E6;labelBackgroundColor=#333333;fontColor=#E6E6E6;" parent="1nYw9ThHLsexZ4AbJdqg-314" edge="1">
          <mxGeometry width="50" height="50" relative="1" as="geometry">
            <mxPoint x="55" y="48.33000000000004" as="sourcePoint" />
            <mxPoint y="48.33000000000004" as="targetPoint" />
          </mxGeometry>
        </mxCell>
        <mxCell id="1nYw9ThHLsexZ4AbJdqg-300" value="And" style="endArrow=none;html=1;rounded=0;strokeColor=#E6E6E6;labelBackgroundColor=#333333;fontColor=#E6E6E6;" parent="1nYw9ThHLsexZ4AbJdqg-314" edge="1">
          <mxGeometry width="50" height="50" relative="1" as="geometry">
            <mxPoint x="55" y="67.33000000000004" as="sourcePoint" />
            <mxPoint y="67.33000000000004" as="targetPoint" />
          </mxGeometry>
        </mxCell>
        <mxCell id="1nYw9ThHLsexZ4AbJdqg-301" value="Jump" style="endArrow=none;html=1;rounded=0;strokeColor=#E6E6E6;labelBackgroundColor=#333333;fontColor=#E6E6E6;" parent="1nYw9ThHLsexZ4AbJdqg-314" edge="1">
          <mxGeometry width="50" height="50" relative="1" as="geometry">
            <mxPoint x="55" y="86.33000000000004" as="sourcePoint" />
            <mxPoint y="86.33000000000004" as="targetPoint" />
          </mxGeometry>
        </mxCell>
        <mxCell id="1nYw9ThHLsexZ4AbJdqg-302" value="Jumpz" style="endArrow=none;html=1;rounded=0;strokeColor=#E6E6E6;labelBackgroundColor=#333333;fontColor=#E6E6E6;" parent="1nYw9ThHLsexZ4AbJdqg-314" edge="1">
          <mxGeometry width="50" height="50" relative="1" as="geometry">
            <mxPoint x="55" y="105.32999999999993" as="sourcePoint" />
            <mxPoint y="105.32999999999993" as="targetPoint" />
          </mxGeometry>
        </mxCell>
        <mxCell id="1nYw9ThHLsexZ4AbJdqg-303" value="Comp" style="endArrow=none;html=1;rounded=0;strokeColor=#E6E6E6;labelBackgroundColor=#333333;fontColor=#E6E6E6;" parent="1nYw9ThHLsexZ4AbJdqg-314" edge="1">
          <mxGeometry width="50" height="50" relative="1" as="geometry">
            <mxPoint x="55" y="124.32999999999993" as="sourcePoint" />
            <mxPoint y="124.32999999999993" as="targetPoint" />
          </mxGeometry>
        </mxCell>
        <mxCell id="1nYw9ThHLsexZ4AbJdqg-304" value="LSL" style="endArrow=none;html=1;rounded=0;strokeColor=#E6E6E6;labelBackgroundColor=#333333;fontColor=#E6E6E6;" parent="1nYw9ThHLsexZ4AbJdqg-314" edge="1">
          <mxGeometry width="50" height="50" relative="1" as="geometry">
            <mxPoint x="55" y="143.32999999999993" as="sourcePoint" />
            <mxPoint y="143.32999999999993" as="targetPoint" />
          </mxGeometry>
        </mxCell>
        <mxCell id="1nYw9ThHLsexZ4AbJdqg-316" value="" style="shape=flexArrow;endArrow=classic;html=1;rounded=0;strokeColor=#E6E6E6;entryX=0.53;entryY=0.733;entryDx=0;entryDy=0;entryPerimeter=0;exitX=0.918;exitY=0.001;exitDx=0;exitDy=0;exitPerimeter=0;" parent="1" source="1nYw9ThHLsexZ4AbJdqg-315" edge="1">
          <mxGeometry width="50" height="50" relative="1" as="geometry">
            <mxPoint x="567.0400000000001" y="915" as="sourcePoint" />
            <mxPoint x="567.95" y="729.9899999999999" as="targetPoint" />
          </mxGeometry>
        </mxCell>
        <mxCell id="1nYw9ThHLsexZ4AbJdqg-320" value="RST" style="text;html=1;strokeColor=none;fillColor=none;align=left;verticalAlign=middle;whiteSpace=wrap;rounded=0;fontColor=#E6E6E6;" parent="1" vertex="1">
          <mxGeometry x="175" y="974" width="35" height="15" as="geometry" />
        </mxCell>
        <mxCell id="1nYw9ThHLsexZ4AbJdqg-338" style="edgeStyle=orthogonalEdgeStyle;rounded=0;orthogonalLoop=1;jettySize=auto;html=1;exitX=1;exitY=0.5;exitDx=0;exitDy=0;strokeColor=#E6E6E6;" parent="1" source="1nYw9ThHLsexZ4AbJdqg-326" edge="1">
          <mxGeometry relative="1" as="geometry">
            <mxPoint x="407.1627906976745" y="890" as="targetPoint" />
          </mxGeometry>
        </mxCell>
        <mxCell id="1nYw9ThHLsexZ4AbJdqg-337" style="edgeStyle=orthogonalEdgeStyle;rounded=0;orthogonalLoop=1;jettySize=auto;html=1;exitX=1;exitY=0.5;exitDx=0;exitDy=0;strokeColor=#E6E6E6;" parent="1" source="1nYw9ThHLsexZ4AbJdqg-327" edge="1">
          <mxGeometry relative="1" as="geometry">
            <mxPoint x="431.11627906976753" y="890" as="targetPoint" />
          </mxGeometry>
        </mxCell>
        <mxCell id="1nYw9ThHLsexZ4AbJdqg-336" style="edgeStyle=orthogonalEdgeStyle;rounded=0;orthogonalLoop=1;jettySize=auto;html=1;exitX=1;exitY=0.5;exitDx=0;exitDy=0;strokeColor=#E6E6E6;" parent="1" source="1nYw9ThHLsexZ4AbJdqg-328" edge="1">
          <mxGeometry relative="1" as="geometry">
            <mxPoint x="454.139534883721" y="890" as="targetPoint" />
          </mxGeometry>
        </mxCell>
        <mxCell id="1nYw9ThHLsexZ4AbJdqg-335" style="edgeStyle=orthogonalEdgeStyle;rounded=0;orthogonalLoop=1;jettySize=auto;html=1;exitX=1;exitY=0.5;exitDx=0;exitDy=0;strokeColor=#E6E6E6;" parent="1" source="1nYw9ThHLsexZ4AbJdqg-329" edge="1">
          <mxGeometry relative="1" as="geometry">
            <mxPoint x="477.8604651162791" y="890" as="targetPoint" />
          </mxGeometry>
        </mxCell>
        <mxCell id="1nYw9ThHLsexZ4AbJdqg-334" style="edgeStyle=orthogonalEdgeStyle;rounded=0;orthogonalLoop=1;jettySize=auto;html=1;exitX=1;exitY=0.5;exitDx=0;exitDy=0;strokeColor=#E6E6E6;" parent="1" source="1nYw9ThHLsexZ4AbJdqg-330" edge="1">
          <mxGeometry relative="1" as="geometry">
            <mxPoint x="502.5" y="890" as="targetPoint" />
          </mxGeometry>
        </mxCell>
        <mxCell id="1nYw9ThHLsexZ4AbJdqg-333" value="" style="endArrow=none;html=1;rounded=0;shape=flexArrow;strokeColor=#E6E6E6;endFill=0;" parent="1" edge="1">
          <mxGeometry width="50" height="50" relative="1" as="geometry">
            <mxPoint x="510" y="885" as="sourcePoint" />
            <mxPoint x="-105" y="390" as="targetPoint" />
            <Array as="points">
              <mxPoint x="-105" y="885" />
            </Array>
          </mxGeometry>
        </mxCell>
        <mxCell id="1nYw9ThHLsexZ4AbJdqg-344" style="edgeStyle=orthogonalEdgeStyle;rounded=0;orthogonalLoop=1;jettySize=auto;html=1;exitX=0;exitY=0.5;exitDx=0;exitDy=0;endArrow=none;endFill=0;strokeColor=#E6E6E6;" parent="1" source="1nYw9ThHLsexZ4AbJdqg-339" edge="1">
          <mxGeometry relative="1" as="geometry">
            <mxPoint x="-100" y="401" as="targetPoint" />
            <Array as="points">
              <mxPoint x="-100" y="396" />
            </Array>
          </mxGeometry>
        </mxCell>
        <mxCell id="1nYw9ThHLsexZ4AbJdqg-339" value="Add.T&lt;sub&gt;4&lt;/sub&gt;" style="shape=step;perimeter=stepPerimeter;whiteSpace=wrap;html=1;fixedSize=1;rotation=0;fillColor=#003366;fontColor=#E6E6E6;strokeColor=#E6E6E6;" parent="1" vertex="1">
          <mxGeometry x="-77.5" y="385.63" width="92.5" height="20" as="geometry" />
        </mxCell>
        <mxCell id="1nYw9ThHLsexZ4AbJdqg-345" style="edgeStyle=orthogonalEdgeStyle;rounded=0;orthogonalLoop=1;jettySize=auto;html=1;exitX=0;exitY=0.5;exitDx=0;exitDy=0;endArrow=none;endFill=0;strokeColor=#E6E6E6;" parent="1" source="1nYw9ThHLsexZ4AbJdqg-340" edge="1">
          <mxGeometry relative="1" as="geometry">
            <mxPoint x="-100" y="430.04651162790697" as="targetPoint" />
            <Array as="points">
              <mxPoint x="-100" y="424" />
            </Array>
          </mxGeometry>
        </mxCell>
        <mxCell id="1nYw9ThHLsexZ4AbJdqg-340" value="And.T&lt;sub&gt;4&lt;/sub&gt;" style="shape=step;perimeter=stepPerimeter;whiteSpace=wrap;html=1;fixedSize=1;rotation=0;fillColor=#003366;fontColor=#E6E6E6;strokeColor=#E6E6E6;" parent="1" vertex="1">
          <mxGeometry x="-77.5" y="414.38" width="92.5" height="20" as="geometry" />
        </mxCell>
        <mxCell id="1nYw9ThHLsexZ4AbJdqg-346" style="edgeStyle=orthogonalEdgeStyle;rounded=0;orthogonalLoop=1;jettySize=auto;html=1;exitX=0;exitY=0.5;exitDx=0;exitDy=0;endArrow=none;endFill=0;strokeColor=#E6E6E6;" parent="1" source="1nYw9ThHLsexZ4AbJdqg-341" edge="1">
          <mxGeometry relative="1" as="geometry">
            <mxPoint x="-100" y="460.04651162790697" as="targetPoint" />
            <Array as="points">
              <mxPoint x="-100" y="454" />
            </Array>
          </mxGeometry>
        </mxCell>
        <mxCell id="1nYw9ThHLsexZ4AbJdqg-341" value="Comp.T&lt;sub&gt;2&lt;/sub&gt;" style="shape=step;perimeter=stepPerimeter;whiteSpace=wrap;html=1;fixedSize=1;rotation=0;fillColor=#003366;fontColor=#E6E6E6;strokeColor=#E6E6E6;" parent="1" vertex="1">
          <mxGeometry x="-77.5" y="444.38" width="92.5" height="20" as="geometry" />
        </mxCell>
        <mxCell id="1nYw9ThHLsexZ4AbJdqg-347" style="edgeStyle=orthogonalEdgeStyle;rounded=0;orthogonalLoop=1;jettySize=auto;html=1;exitX=0;exitY=0.5;exitDx=0;exitDy=0;endArrow=none;endFill=0;strokeColor=#E6E6E6;" parent="1" source="1nYw9ThHLsexZ4AbJdqg-342" edge="1">
          <mxGeometry relative="1" as="geometry">
            <mxPoint x="-100" y="485" as="targetPoint" />
            <Array as="points">
              <mxPoint x="-100" y="483" />
            </Array>
          </mxGeometry>
        </mxCell>
        <mxCell id="1nYw9ThHLsexZ4AbJdqg-342" value="LSL.T&lt;sub&gt;2&lt;/sub&gt;" style="shape=step;perimeter=stepPerimeter;whiteSpace=wrap;html=1;fixedSize=1;rotation=0;fillColor=#003366;fontColor=#E6E6E6;strokeColor=#E6E6E6;" parent="1" vertex="1">
          <mxGeometry x="-77.5" y="473.38" width="92.5" height="20" as="geometry" />
        </mxCell>
        <mxCell id="1nYw9ThHLsexZ4AbJdqg-348" style="edgeStyle=orthogonalEdgeStyle;rounded=0;orthogonalLoop=1;jettySize=auto;html=1;exitX=0;exitY=0.5;exitDx=0;exitDy=0;endArrow=none;endFill=0;strokeColor=#E6E6E6;" parent="1" source="1nYw9ThHLsexZ4AbJdqg-343" edge="1">
          <mxGeometry relative="1" as="geometry">
            <mxPoint x="-100" y="512" as="targetPoint" />
            <Array as="points">
              <mxPoint x="-100" y="512" />
            </Array>
          </mxGeometry>
        </mxCell>
        <mxCell id="1nYw9ThHLsexZ4AbJdqg-343" value="Load.T&lt;sub&gt;4&lt;/sub&gt;" style="shape=step;perimeter=stepPerimeter;whiteSpace=wrap;html=1;fixedSize=1;rotation=0;fillColor=#003366;fontColor=#E6E6E6;strokeColor=#E6E6E6;" parent="1" vertex="1">
          <mxGeometry x="-77.5" y="501.88" width="92.5" height="20" as="geometry" />
        </mxCell>
        <mxCell id="1nYw9ThHLsexZ4AbJdqg-349" value="" style="triangle;whiteSpace=wrap;html=1;fillColor=#333333;" parent="1" vertex="1">
          <mxGeometry x="-5" y="389.38" width="15" height="12.5" as="geometry" />
        </mxCell>
        <mxCell id="1nYw9ThHLsexZ4AbJdqg-350" value="" style="triangle;whiteSpace=wrap;html=1;fillColor=#333333;" parent="1" vertex="1">
          <mxGeometry x="-5" y="418.13" width="15" height="12.5" as="geometry" />
        </mxCell>
        <mxCell id="1nYw9ThHLsexZ4AbJdqg-351" value="" style="triangle;whiteSpace=wrap;html=1;fillColor=#333333;" parent="1" vertex="1">
          <mxGeometry x="-5" y="448.13" width="15" height="12.5" as="geometry" />
        </mxCell>
        <mxCell id="1nYw9ThHLsexZ4AbJdqg-352" value="" style="triangle;whiteSpace=wrap;html=1;fillColor=#333333;" parent="1" vertex="1">
          <mxGeometry x="-5" y="477.13" width="15" height="12.5" as="geometry" />
        </mxCell>
        <mxCell id="1nYw9ThHLsexZ4AbJdqg-353" value="" style="triangle;whiteSpace=wrap;html=1;fillColor=#333333;" parent="1" vertex="1">
          <mxGeometry x="-5" y="505.63" width="15" height="12.5" as="geometry" />
        </mxCell>
        <mxCell id="1nYw9ThHLsexZ4AbJdqg-364" value="Func: Add" style="rounded=0;whiteSpace=wrap;html=1;fontFamily=Fira Code;fillColor=#66FF66;strokeColor=#E6E6E6;" parent="1" vertex="1">
          <mxGeometry x="205" y="425" width="90" height="15" as="geometry" />
        </mxCell>
        <mxCell id="1nYw9ThHLsexZ4AbJdqg-368" value="" style="group;rotation=90;" parent="1" vertex="1" connectable="0">
          <mxGeometry x="298" y="1201" width="105" height="20" as="geometry" />
        </mxCell>
        <object label="Load M" id="1nYw9ThHLsexZ4AbJdqg-369">
          <mxCell style="shape=step;perimeter=stepPerimeter;whiteSpace=wrap;html=1;fixedSize=1;strokeColor=#E6E6E6;fillColor=#33001A;fontColor=#E6E6E6;rotation=90;" parent="1nYw9ThHLsexZ4AbJdqg-368" vertex="1">
            <mxGeometry width="105" height="20" as="geometry" />
          </mxCell>
        </object>
        <mxCell id="1nYw9ThHLsexZ4AbJdqg-370" value="" style="triangle;whiteSpace=wrap;html=1;fillColor=#333333;rotation=90;" parent="1nYw9ThHLsexZ4AbJdqg-368" vertex="1">
          <mxGeometry x="45" y="45" width="15" height="12.5" as="geometry" />
        </mxCell>
        <mxCell id="1nYw9ThHLsexZ4AbJdqg-371" value="" style="group;rotation=90;" parent="1" vertex="1" connectable="0">
          <mxGeometry x="322" y="1201" width="105" height="20" as="geometry" />
        </mxCell>
        <object label="Load AR" id="1nYw9ThHLsexZ4AbJdqg-372">
          <mxCell style="shape=step;perimeter=stepPerimeter;whiteSpace=wrap;html=1;fixedSize=1;strokeColor=#E6E6E6;fillColor=#33001A;fontColor=#E6E6E6;rotation=90;" parent="1nYw9ThHLsexZ4AbJdqg-371" vertex="1">
            <mxGeometry width="105" height="20" as="geometry" />
          </mxCell>
        </object>
        <mxCell id="1nYw9ThHLsexZ4AbJdqg-373" value="" style="triangle;whiteSpace=wrap;html=1;fillColor=#333333;rotation=90;" parent="1nYw9ThHLsexZ4AbJdqg-371" vertex="1">
          <mxGeometry x="45" y="45" width="15" height="12.5" as="geometry" />
        </mxCell>
        <mxCell id="1nYw9ThHLsexZ4AbJdqg-374" value="" style="group;rotation=90;" parent="1" vertex="1" connectable="0">
          <mxGeometry x="347.5" y="1201" width="105" height="20" as="geometry" />
        </mxCell>
        <object label="Load PC" id="1nYw9ThHLsexZ4AbJdqg-375">
          <mxCell style="shape=step;perimeter=stepPerimeter;whiteSpace=wrap;html=1;fixedSize=1;strokeColor=#E6E6E6;fillColor=#33001A;fontColor=#E6E6E6;rotation=90;" parent="1nYw9ThHLsexZ4AbJdqg-374" vertex="1">
            <mxGeometry width="105" height="20" as="geometry" />
          </mxCell>
        </object>
        <mxCell id="1nYw9ThHLsexZ4AbJdqg-376" value="" style="triangle;whiteSpace=wrap;html=1;fillColor=#333333;rotation=90;" parent="1nYw9ThHLsexZ4AbJdqg-374" vertex="1">
          <mxGeometry x="45" y="45" width="15" height="12.5" as="geometry" />
        </mxCell>
        <mxCell id="1nYw9ThHLsexZ4AbJdqg-377" value="" style="group;rotation=90;" parent="1" vertex="1" connectable="0">
          <mxGeometry x="372" y="1201" width="105" height="20" as="geometry" />
        </mxCell>
        <object label="&lt;div&gt;EN PC&lt;/div&gt;" id="1nYw9ThHLsexZ4AbJdqg-378">
          <mxCell style="shape=step;perimeter=stepPerimeter;whiteSpace=wrap;html=1;fixedSize=1;strokeColor=#E6E6E6;fillColor=#33001A;fontColor=#E6E6E6;rotation=90;" parent="1nYw9ThHLsexZ4AbJdqg-377" vertex="1">
            <mxGeometry width="105" height="20" as="geometry" />
          </mxCell>
        </object>
        <mxCell id="1nYw9ThHLsexZ4AbJdqg-379" value="" style="triangle;whiteSpace=wrap;html=1;fillColor=#333333;rotation=90;" parent="1nYw9ThHLsexZ4AbJdqg-377" vertex="1">
          <mxGeometry x="45" y="45" width="15" height="12.5" as="geometry" />
        </mxCell>
        <mxCell id="1nYw9ThHLsexZ4AbJdqg-380" value="" style="group;rotation=90;" parent="1" vertex="1" connectable="0">
          <mxGeometry x="397" y="1201" width="105" height="20" as="geometry" />
        </mxCell>
        <object label="&lt;div&gt;Load DR&lt;/div&gt;" id="1nYw9ThHLsexZ4AbJdqg-381">
          <mxCell style="shape=step;perimeter=stepPerimeter;whiteSpace=wrap;html=1;fixedSize=1;strokeColor=#E6E6E6;fillColor=#33001A;fontColor=#E6E6E6;rotation=90;" parent="1nYw9ThHLsexZ4AbJdqg-380" vertex="1">
            <mxGeometry width="105" height="20" as="geometry" />
          </mxCell>
        </object>
        <mxCell id="1nYw9ThHLsexZ4AbJdqg-382" value="" style="triangle;whiteSpace=wrap;html=1;fillColor=#333333;rotation=90;" parent="1nYw9ThHLsexZ4AbJdqg-380" vertex="1">
          <mxGeometry x="45" y="45" width="15" height="12.5" as="geometry" />
        </mxCell>
        <mxCell id="1nYw9ThHLsexZ4AbJdqg-383" value="" style="group;rotation=90;" parent="1" vertex="1" connectable="0">
          <mxGeometry x="423" y="1201" width="105" height="20" as="geometry" />
        </mxCell>
        <object label="Load AC" id="1nYw9ThHLsexZ4AbJdqg-384">
          <mxCell style="shape=step;perimeter=stepPerimeter;whiteSpace=wrap;html=1;fixedSize=1;strokeColor=#E6E6E6;fillColor=#33001A;fontColor=#E6E6E6;rotation=90;" parent="1nYw9ThHLsexZ4AbJdqg-383" vertex="1">
            <mxGeometry width="105" height="20" as="geometry" />
          </mxCell>
        </object>
        <mxCell id="1nYw9ThHLsexZ4AbJdqg-385" value="" style="triangle;whiteSpace=wrap;html=1;fillColor=#333333;rotation=90;" parent="1nYw9ThHLsexZ4AbJdqg-383" vertex="1">
          <mxGeometry x="45" y="45" width="15" height="12.5" as="geometry" />
        </mxCell>
        <mxCell id="1nYw9ThHLsexZ4AbJdqg-386" value="" style="group;rotation=90;" parent="1" vertex="1" connectable="0">
          <mxGeometry x="447.5" y="1201" width="105" height="20" as="geometry" />
        </mxCell>
        <object label="Load InpR" id="1nYw9ThHLsexZ4AbJdqg-387">
          <mxCell style="shape=step;perimeter=stepPerimeter;whiteSpace=wrap;html=1;fixedSize=1;strokeColor=#E6E6E6;fillColor=#33001A;fontColor=#E6E6E6;rotation=90;" parent="1nYw9ThHLsexZ4AbJdqg-386" vertex="1">
            <mxGeometry width="105" height="20" as="geometry" />
          </mxCell>
        </object>
        <mxCell id="1nYw9ThHLsexZ4AbJdqg-388" value="" style="triangle;whiteSpace=wrap;html=1;fillColor=#333333;rotation=90;" parent="1nYw9ThHLsexZ4AbJdqg-386" vertex="1">
          <mxGeometry x="45" y="45" width="15" height="12.5" as="geometry" />
        </mxCell>
        <mxCell id="1nYw9ThHLsexZ4AbJdqg-389" value="" style="group;rotation=90;" parent="1" vertex="1" connectable="0">
          <mxGeometry x="473" y="1201" width="105" height="20" as="geometry" />
        </mxCell>
        <object label="Load TR" id="1nYw9ThHLsexZ4AbJdqg-390">
          <mxCell style="shape=step;perimeter=stepPerimeter;whiteSpace=wrap;html=1;fixedSize=1;strokeColor=#E6E6E6;fillColor=#33001A;fontColor=#E6E6E6;rotation=90;" parent="1nYw9ThHLsexZ4AbJdqg-389" vertex="1">
            <mxGeometry width="105" height="20" as="geometry" />
          </mxCell>
        </object>
        <mxCell id="1nYw9ThHLsexZ4AbJdqg-391" value="" style="triangle;whiteSpace=wrap;html=1;fillColor=#333333;rotation=90;" parent="1nYw9ThHLsexZ4AbJdqg-389" vertex="1">
          <mxGeometry x="45" y="45" width="15" height="12.5" as="geometry" />
        </mxCell>
        <mxCell id="1nYw9ThHLsexZ4AbJdqg-392" value="" style="group;rotation=90;" parent="1" vertex="1" connectable="0">
          <mxGeometry x="498" y="1201" width="105" height="20" as="geometry" />
        </mxCell>
        <object label="Load IR" id="1nYw9ThHLsexZ4AbJdqg-393">
          <mxCell style="shape=step;perimeter=stepPerimeter;whiteSpace=wrap;html=1;fixedSize=1;strokeColor=#E6E6E6;fillColor=#33001A;fontColor=#E6E6E6;rotation=90;" parent="1nYw9ThHLsexZ4AbJdqg-392" vertex="1">
            <mxGeometry width="105" height="20" as="geometry" />
          </mxCell>
        </object>
        <mxCell id="1nYw9ThHLsexZ4AbJdqg-394" value="" style="triangle;whiteSpace=wrap;html=1;fillColor=#333333;rotation=90;" parent="1nYw9ThHLsexZ4AbJdqg-392" vertex="1">
          <mxGeometry x="45" y="45" width="15" height="12.5" as="geometry" />
        </mxCell>
        <mxCell id="1nYw9ThHLsexZ4AbJdqg-395" value="" style="group;rotation=90;" parent="1" vertex="1" connectable="0">
          <mxGeometry x="523" y="1201" width="105" height="20" as="geometry" />
        </mxCell>
        <object label="Load OutR" id="1nYw9ThHLsexZ4AbJdqg-396">
          <mxCell style="shape=step;perimeter=stepPerimeter;whiteSpace=wrap;html=1;fixedSize=1;strokeColor=#E6E6E6;fillColor=#33001A;fontColor=#E6E6E6;rotation=90;" parent="1nYw9ThHLsexZ4AbJdqg-395" vertex="1">
            <mxGeometry width="105" height="20" as="geometry" />
          </mxCell>
        </object>
        <mxCell id="1nYw9ThHLsexZ4AbJdqg-397" value="" style="triangle;whiteSpace=wrap;html=1;fillColor=#333333;rotation=90;" parent="1nYw9ThHLsexZ4AbJdqg-395" vertex="1">
          <mxGeometry x="45" y="45" width="15" height="12.5" as="geometry" />
        </mxCell>
        <mxCell id="1nYw9ThHLsexZ4AbJdqg-401" value="" style="endArrow=none;html=1;rounded=0;entryX=0;entryY=0.5;entryDx=0;entryDy=0;endFill=0;strokeColor=#E6E6E6;" parent="1" edge="1">
          <mxGeometry width="50" height="50" relative="1" as="geometry">
            <mxPoint x="440" y="1086" as="sourcePoint" />
            <mxPoint x="350.5" y="1179.4999999999998" as="targetPoint" />
            <Array as="points">
              <mxPoint x="440" y="1136" />
              <mxPoint x="350" y="1136" />
            </Array>
          </mxGeometry>
        </mxCell>
        <mxCell id="1nYw9ThHLsexZ4AbJdqg-402" value="" style="endArrow=none;html=1;rounded=0;entryX=0;entryY=0.5;entryDx=0;entryDy=0;endFill=0;strokeColor=#E6E6E6;" parent="1" edge="1">
          <mxGeometry width="50" height="50" relative="1" as="geometry">
            <mxPoint x="445" y="1086" as="sourcePoint" />
            <mxPoint x="374.5" y="1179.4999999999998" as="targetPoint" />
            <Array as="points">
              <mxPoint x="445" y="1141" />
              <mxPoint x="375" y="1141" />
            </Array>
          </mxGeometry>
        </mxCell>
        <mxCell id="1nYw9ThHLsexZ4AbJdqg-404" value="" style="endArrow=none;html=1;rounded=0;entryX=0;entryY=0.5;entryDx=0;entryDy=0;endFill=0;strokeColor=#E6E6E6;" parent="1" edge="1">
          <mxGeometry width="50" height="50" relative="1" as="geometry">
            <mxPoint x="450" y="1086" as="sourcePoint" />
            <mxPoint x="400" y="1179.4999999999998" as="targetPoint" />
            <Array as="points">
              <mxPoint x="450" y="1146" />
              <mxPoint x="400" y="1146" />
            </Array>
          </mxGeometry>
        </mxCell>
        <mxCell id="1nYw9ThHLsexZ4AbJdqg-405" value="" style="endArrow=none;html=1;rounded=0;entryX=0;entryY=0.5;entryDx=0;entryDy=0;endFill=0;strokeColor=#E6E6E6;" parent="1" edge="1">
          <mxGeometry width="50" height="50" relative="1" as="geometry">
            <mxPoint x="455" y="1086" as="sourcePoint" />
            <mxPoint x="424.5" y="1179.4999999999998" as="targetPoint" />
            <Array as="points">
              <mxPoint x="455" y="1151" />
              <mxPoint x="425" y="1151" />
            </Array>
          </mxGeometry>
        </mxCell>
        <mxCell id="1nYw9ThHLsexZ4AbJdqg-406" value="" style="endArrow=none;html=1;rounded=0;entryX=0;entryY=0.5;entryDx=0;entryDy=0;endFill=0;strokeColor=#E6E6E6;" parent="1" edge="1">
          <mxGeometry width="50" height="50" relative="1" as="geometry">
            <mxPoint x="460" y="1086" as="sourcePoint" />
            <mxPoint x="449.5" y="1179.4999999999998" as="targetPoint" />
            <Array as="points">
              <mxPoint x="460" y="1156" />
              <mxPoint x="450" y="1156" />
            </Array>
          </mxGeometry>
        </mxCell>
        <mxCell id="1nYw9ThHLsexZ4AbJdqg-408" value="" style="endArrow=none;html=1;rounded=0;entryX=0;entryY=0.5;entryDx=0;entryDy=0;endFill=0;strokeColor=#E6E6E6;" parent="1" edge="1">
          <mxGeometry width="50" height="50" relative="1" as="geometry">
            <mxPoint x="465" y="1086" as="sourcePoint" />
            <mxPoint x="475.5" y="1179.4999999999998" as="targetPoint" />
            <Array as="points">
              <mxPoint x="465" y="1156" />
              <mxPoint x="476" y="1156" />
            </Array>
          </mxGeometry>
        </mxCell>
        <mxCell id="1nYw9ThHLsexZ4AbJdqg-409" value="" style="endArrow=none;html=1;rounded=0;entryX=0;entryY=0.5;entryDx=0;entryDy=0;endFill=0;strokeColor=#E6E6E6;" parent="1" edge="1">
          <mxGeometry width="50" height="50" relative="1" as="geometry">
            <mxPoint x="470" y="1086" as="sourcePoint" />
            <mxPoint x="500" y="1179.4999999999998" as="targetPoint" />
            <Array as="points">
              <mxPoint x="470" y="1151" />
              <mxPoint x="500" y="1151" />
            </Array>
          </mxGeometry>
        </mxCell>
        <mxCell id="1nYw9ThHLsexZ4AbJdqg-410" value="" style="endArrow=none;html=1;rounded=0;entryX=0;entryY=0.5;entryDx=0;entryDy=0;endFill=0;strokeColor=#E6E6E6;" parent="1" edge="1">
          <mxGeometry width="50" height="50" relative="1" as="geometry">
            <mxPoint x="475" y="1086" as="sourcePoint" />
            <mxPoint x="525.5" y="1179.4999999999998" as="targetPoint" />
            <Array as="points">
              <mxPoint x="475" y="1146" />
              <mxPoint x="526" y="1146" />
            </Array>
          </mxGeometry>
        </mxCell>
        <mxCell id="1nYw9ThHLsexZ4AbJdqg-411" value="" style="endArrow=none;html=1;rounded=0;entryX=0;entryY=0.5;entryDx=0;entryDy=0;endFill=0;strokeColor=#E6E6E6;" parent="1" edge="1">
          <mxGeometry width="50" height="50" relative="1" as="geometry">
            <mxPoint x="480" y="1086" as="sourcePoint" />
            <mxPoint x="550.5" y="1179.4999999999998" as="targetPoint" />
            <Array as="points">
              <mxPoint x="480" y="1141" />
              <mxPoint x="550" y="1141" />
            </Array>
          </mxGeometry>
        </mxCell>
        <mxCell id="1nYw9ThHLsexZ4AbJdqg-412" value="" style="endArrow=none;html=1;rounded=0;entryX=0;entryY=0.5;entryDx=0;entryDy=0;endFill=0;strokeColor=#E6E6E6;" parent="1" edge="1">
          <mxGeometry width="50" height="50" relative="1" as="geometry">
            <mxPoint x="485" y="1086" as="sourcePoint" />
            <mxPoint x="575.5" y="1179.4999999999998" as="targetPoint" />
            <Array as="points">
              <mxPoint x="485" y="1136" />
              <mxPoint x="575" y="1136" />
            </Array>
          </mxGeometry>
        </mxCell>
        <mxCell id="1nYw9ThHLsexZ4AbJdqg-315" value="Main Control" style="rounded=0;whiteSpace=wrap;html=1;fillColor=#001933;strokeColor=#E6E6E6;fontColor=#E6E6E6;spacingTop=60;fontSize=17;" parent="1" vertex="1">
          <mxGeometry x="381" y="940" width="204" height="155" as="geometry" />
        </mxCell>
        <mxCell id="1nYw9ThHLsexZ4AbJdqg-326" value="Add.T&lt;sub&gt;4&lt;/sub&gt;" style="shape=step;perimeter=stepPerimeter;whiteSpace=wrap;html=1;fixedSize=1;rotation=-90;fillColor=#003366;fontColor=#E6E6E6;strokeColor=#E6E6E6;" parent="1" vertex="1">
          <mxGeometry x="361" y="967" width="92.5" height="20" as="geometry" />
        </mxCell>
        <mxCell id="1nYw9ThHLsexZ4AbJdqg-327" value="And.T&lt;sub&gt;4&lt;/sub&gt;" style="shape=step;perimeter=stepPerimeter;whiteSpace=wrap;html=1;fixedSize=1;rotation=-90;fillColor=#003366;fontColor=#E6E6E6;strokeColor=#E6E6E6;" parent="1" vertex="1">
          <mxGeometry x="384.75" y="967" width="92.5" height="20" as="geometry" />
        </mxCell>
        <mxCell id="1nYw9ThHLsexZ4AbJdqg-328" value="Comp.T&lt;sub&gt;2&lt;/sub&gt;" style="shape=step;perimeter=stepPerimeter;whiteSpace=wrap;html=1;fixedSize=1;rotation=-90;fillColor=#003366;fontColor=#E6E6E6;strokeColor=#E6E6E6;" parent="1" vertex="1">
          <mxGeometry x="408" y="967" width="92.5" height="20" as="geometry" />
        </mxCell>
        <mxCell id="1nYw9ThHLsexZ4AbJdqg-329" value="LSL.T&lt;sub&gt;2&lt;/sub&gt;" style="shape=step;perimeter=stepPerimeter;whiteSpace=wrap;html=1;fixedSize=1;rotation=-90;fillColor=#003366;fontColor=#E6E6E6;strokeColor=#E6E6E6;" parent="1" vertex="1">
          <mxGeometry x="431.5" y="967" width="92.5" height="20" as="geometry" />
        </mxCell>
        <mxCell id="1nYw9ThHLsexZ4AbJdqg-330" value="Load.T&lt;sub&gt;4&lt;/sub&gt;" style="shape=step;perimeter=stepPerimeter;whiteSpace=wrap;html=1;fixedSize=1;rotation=-90;fillColor=#003366;fontColor=#E6E6E6;strokeColor=#E6E6E6;" parent="1" vertex="1">
          <mxGeometry x="456" y="967" width="92.5" height="20" as="geometry" />
        </mxCell>
        <mxCell id="1nYw9ThHLsexZ4AbJdqg-359" value="" style="triangle;whiteSpace=wrap;html=1;fillColor=#333333;rotation=-90;" parent="1" vertex="1">
          <mxGeometry x="399.75" y="935" width="15" height="12.5" as="geometry" />
        </mxCell>
        <mxCell id="1nYw9ThHLsexZ4AbJdqg-360" value="" style="triangle;whiteSpace=wrap;html=1;fillColor=#333333;rotation=-90;" parent="1" vertex="1">
          <mxGeometry x="423.5" y="935" width="15" height="12.5" as="geometry" />
        </mxCell>
        <mxCell id="1nYw9ThHLsexZ4AbJdqg-361" value="" style="triangle;whiteSpace=wrap;html=1;fillColor=#333333;rotation=-90;" parent="1" vertex="1">
          <mxGeometry x="446.75" y="935" width="15" height="12.5" as="geometry" />
        </mxCell>
        <mxCell id="1nYw9ThHLsexZ4AbJdqg-362" value="" style="triangle;whiteSpace=wrap;html=1;fillColor=#333333;rotation=-90;" parent="1" vertex="1">
          <mxGeometry x="470.25" y="935" width="15" height="12.5" as="geometry" />
        </mxCell>
        <mxCell id="1nYw9ThHLsexZ4AbJdqg-363" value="" style="triangle;whiteSpace=wrap;html=1;fillColor=#333333;rotation=-90;" parent="1" vertex="1">
          <mxGeometry x="494.75" y="935" width="15" height="12.5" as="geometry" />
        </mxCell>
        <mxCell id="1nYw9ThHLsexZ4AbJdqg-414" value="" style="shape=flexArrow;endArrow=classic;html=1;rounded=0;strokeColor=#E6E6E6;width=7.586206896551724;endSize=3.910344827586207;endWidth=10.630202140309157;" parent="1" edge="1">
          <mxGeometry width="50" height="50" relative="1" as="geometry">
            <mxPoint x="805" y="1017" as="sourcePoint" />
            <mxPoint x="720" y="1016.91" as="targetPoint" />
          </mxGeometry>
        </mxCell>
        <mxCell id="1nYw9ThHLsexZ4AbJdqg-415" value="" style="endArrow=none;html=1;rounded=0;strokeColor=#E6E6E6;startArrow=oval;startFill=1;endFill=0;" parent="1" edge="1">
          <mxGeometry width="50" height="50" relative="1" as="geometry">
            <mxPoint x="496" y="680" as="sourcePoint" />
            <mxPoint x="496.32" y="780.5" as="targetPoint" />
          </mxGeometry>
        </mxCell>
        <mxCell id="1nYw9ThHLsexZ4AbJdqg-416" value="" style="curved=1;endArrow=none;html=1;rounded=0;endFill=0;strokeColor=#E6E6E6;" parent="1" edge="1">
          <mxGeometry width="50" height="50" relative="1" as="geometry">
            <mxPoint x="500" y="850" as="sourcePoint" />
            <mxPoint x="497.5" y="780.5" as="targetPoint" />
            <Array as="points">
              <mxPoint x="477.5" y="850.5" />
              <mxPoint x="477.5" y="780.5" />
            </Array>
          </mxGeometry>
        </mxCell>
        <mxCell id="1nYw9ThHLsexZ4AbJdqg-417" value="" style="endArrow=none;html=1;rounded=0;strokeColor=#E6E6E6;endFill=0;" parent="1" edge="1">
          <mxGeometry width="50" height="50" relative="1" as="geometry">
            <mxPoint x="499" y="850" as="sourcePoint" />
            <mxPoint x="805" y="1015" as="targetPoint" />
            <Array as="points">
              <mxPoint x="499" y="860" />
              <mxPoint x="805" y="860" />
            </Array>
          </mxGeometry>
        </mxCell>
        <mxCell id="1nYw9ThHLsexZ4AbJdqg-421" value="0000" style="shape=callout;perimeter=calloutPerimeter;size=10;position=0.3;position2=0.5;base=14;fontFamily=Fira Code;html=1;whiteSpace=wrap;fillColor=#99004D;" parent="1" vertex="1">
          <mxGeometry x="85" y="1035" width="34" height="25" as="geometry" />
        </mxCell>
        <mxCell id="1nYw9ThHLsexZ4AbJdqg-422" value="0" style="rounded=0;whiteSpace=wrap;html=1;fontFamily=Fira Code;fillColor=#FF8000;strokeColor=#E6E6E6;" parent="1" vertex="1">
          <mxGeometry x="215" y="965" width="20" height="15" as="geometry" />
        </mxCell>
        <mxCell id="1nYw9ThHLsexZ4AbJdqg-424" value="z" style="text;html=1;strokeColor=none;fillColor=none;align=center;verticalAlign=middle;whiteSpace=wrap;rounded=0;" parent="1" vertex="1">
          <mxGeometry x="197.5" y="1070" width="60" height="30" as="geometry" />
        </mxCell>
        <mxCell id="1nYw9ThHLsexZ4AbJdqg-426" value="" style="rhombus;whiteSpace=wrap;html=1;fillColor=#00FF00;" parent="1" vertex="1">
          <mxGeometry x="208" y="1077" width="15" height="15" as="geometry" />
        </mxCell>
        <mxCell id="1nYw9ThHLsexZ4AbJdqg-429" value="z" style="text;html=1;strokeColor=none;fillColor=none;align=center;verticalAlign=middle;whiteSpace=wrap;rounded=0;fontColor=#E6E6E6;" parent="1" vertex="1">
          <mxGeometry x="385" y="1075.5" width="60" height="19" as="geometry" />
        </mxCell>
        <mxCell id="1nYw9ThHLsexZ4AbJdqg-436" value="" style="endArrow=classic;html=1;rounded=0;exitX=1;exitY=0.5;exitDx=0;exitDy=0;entryX=0.5;entryY=1;entryDx=0;entryDy=0;strokeColor=#E6E6E6;startArrow=none;startFill=0;endFill=1;" parent="1" source="1nYw9ThHLsexZ4AbJdqg-241" target="1nYw9ThHLsexZ4AbJdqg-429" edge="1">
          <mxGeometry width="50" height="50" relative="1" as="geometry">
            <mxPoint x="265" y="1120" as="sourcePoint" />
            <mxPoint x="413.9999999999998" y="1105.9999999999998" as="targetPoint" />
            <Array as="points">
              <mxPoint x="260" y="1085" />
              <mxPoint x="260" y="1120" />
              <mxPoint x="415" y="1120" />
            </Array>
          </mxGeometry>
        </mxCell>
        <mxCell id="1nYw9ThHLsexZ4AbJdqg-439" value="" style="endArrow=none;html=1;rounded=0;strokeColor=#E6E6E6;" parent="1" edge="1">
          <mxGeometry width="50" height="50" relative="1" as="geometry">
            <mxPoint x="285" y="1264" as="sourcePoint" />
            <mxPoint x="600" y="1265" as="targetPoint" />
          </mxGeometry>
        </mxCell>
        <mxCell id="1nYw9ThHLsexZ4AbJdqg-440" value="" style="endArrow=none;html=1;rounded=0;strokeColor=#E6E6E6;" parent="1" edge="1">
          <mxGeometry width="50" height="50" relative="1" as="geometry">
            <mxPoint x="285.75" y="1280" as="sourcePoint" />
            <mxPoint x="600" y="1265" as="targetPoint" />
            <Array as="points">
              <mxPoint x="600" y="1280" />
            </Array>
          </mxGeometry>
        </mxCell>
        <mxCell id="1nYw9ThHLsexZ4AbJdqg-441" value="" style="endArrow=none;html=1;rounded=0;entryX=1;entryY=0.5;entryDx=0;entryDy=0;strokeColor=#E6E6E6;dashed=1;" parent="1" edge="1">
          <mxGeometry width="50" height="50" relative="1" as="geometry">
            <mxPoint x="40" y="1280" as="sourcePoint" />
            <mxPoint x="285.25" y="1280.5" as="targetPoint" />
          </mxGeometry>
        </mxCell>
        <mxCell id="1nYw9ThHLsexZ4AbJdqg-442" value="" style="endArrow=none;html=1;rounded=0;strokeColor=#E6E6E6;dashed=1;" parent="1" edge="1">
          <mxGeometry width="50" height="50" relative="1" as="geometry">
            <mxPoint x="60" y="1264" as="sourcePoint" />
            <mxPoint x="285" y="1264" as="targetPoint" />
          </mxGeometry>
        </mxCell>
        <mxCell id="OhocnARGBNXMkphMfaer-14" value="Control Unit" style="text;html=1;strokeColor=none;fillColor=none;align=center;verticalAlign=middle;whiteSpace=wrap;rounded=0;fontColor=#E6E6E6;fontSize=28;" parent="1" vertex="1">
          <mxGeometry x="115" y="1139" width="60" height="30" as="geometry" />
        </mxCell>
        <mxCell id="OhocnARGBNXMkphMfaer-15" value="Common Bus" style="text;html=1;strokeColor=none;fillColor=none;align=center;verticalAlign=middle;whiteSpace=wrap;rounded=0;fontColor=#E6E6E6;fontSize=18;" parent="1" vertex="1">
          <mxGeometry x="635" y="328.75" width="60" height="30" as="geometry" />
        </mxCell>
        <mxCell id="OhocnARGBNXMkphMfaer-16" value="" style="endArrow=none;html=1;rounded=0;strokeColor=#E6E6E6;" parent="1" edge="1">
          <mxGeometry width="50" height="50" relative="1" as="geometry">
            <mxPoint x="790" y="1027.5" as="sourcePoint" />
            <mxPoint x="800" y="1007.5" as="targetPoint" />
          </mxGeometry>
        </mxCell>
        <mxCell id="OhocnARGBNXMkphMfaer-19" value="" style="endArrow=none;html=1;rounded=0;edgeStyle=orthogonalEdgeStyle;curved=1;exitX=1;exitY=0.5;exitDx=0;exitDy=0;strokeColor=#E6E6E6;startArrow=classic;startFill=1;" parent="1" source="OhocnARGBNXMkphMfaer-20" edge="1">
          <mxGeometry width="50" height="50" relative="1" as="geometry">
            <mxPoint x="729.5" y="1137" as="sourcePoint" />
            <mxPoint x="780" y="1021" as="targetPoint" />
            <Array as="points">
              <mxPoint x="755" y="1137" />
              <mxPoint x="755" y="1021" />
            </Array>
          </mxGeometry>
        </mxCell>
        <mxCell id="OhocnARGBNXMkphMfaer-20" value="I" style="rounded=0;whiteSpace=wrap;html=1;fontFamily=Fira Code;" parent="1" vertex="1">
          <mxGeometry x="640" y="1107" width="80" height="60" as="geometry" />
        </mxCell>
        <mxCell id="OhocnARGBNXMkphMfaer-21" value="[15]" style="text;html=1;strokeColor=none;fillColor=none;align=center;verticalAlign=middle;whiteSpace=wrap;rounded=0;fontColor=#E6E6E6;" parent="1" vertex="1">
          <mxGeometry x="710.01" y="1045.5" width="60" height="30" as="geometry" />
        </mxCell>
        <mxCell id="OhocnARGBNXMkphMfaer-22" value="[14:12]" style="text;html=1;strokeColor=none;fillColor=none;align=center;verticalAlign=middle;whiteSpace=wrap;rounded=0;fontColor=#E6E6E6;" parent="1" vertex="1">
          <mxGeometry x="725" y="989" width="60" height="30" as="geometry" />
        </mxCell>
        <mxCell id="OhocnARGBNXMkphMfaer-23" value="[15:12]" style="text;html=1;strokeColor=none;fillColor=none;align=center;verticalAlign=middle;whiteSpace=wrap;rounded=0;fontColor=#E6E6E6;" parent="1" vertex="1">
          <mxGeometry x="795" y="1002.5" width="60" height="30" as="geometry" />
        </mxCell>
        <mxCell id="OhocnARGBNXMkphMfaer-26" value="0" style="shape=callout;perimeter=calloutPerimeter;size=10;position=0.3;position2=0.5;base=14;fontFamily=Fira Code;html=1;whiteSpace=wrap;fillColor=#99004D;" parent="1" vertex="1">
          <mxGeometry x="780" y="980" width="34" height="25" as="geometry" />
        </mxCell>
        <mxCell id="OhocnARGBNXMkphMfaer-27" value="0000" style="shape=callout;perimeter=calloutPerimeter;size=10;position=0.3;position2=0.5;base=18;fontFamily=Fira Code;html=1;whiteSpace=wrap;fillColor=#99004D;fontSize=14;" parent="1" vertex="1">
          <mxGeometry x="663.01" y="368.75" width="47" height="30" as="geometry" />
        </mxCell>
        <mxCell id="OhocnARGBNXMkphMfaer-28" value="AC" style="text;html=1;strokeColor=none;fillColor=none;align=left;verticalAlign=middle;whiteSpace=wrap;rounded=0;" parent="1" vertex="1">
          <mxGeometry x="160" y="1050" width="31" height="30" as="geometry" />
        </mxCell>
        <mxCell id="OhocnARGBNXMkphMfaer-29" value="0" style="text;html=1;strokeColor=none;fillColor=none;align=left;verticalAlign=middle;whiteSpace=wrap;rounded=0;fontColor=#E6E6E6;" parent="1" vertex="1">
          <mxGeometry x="15" y="385.63" width="15" height="20" as="geometry" />
        </mxCell>
        <mxCell id="OhocnARGBNXMkphMfaer-30" value="1" style="text;html=1;strokeColor=none;fillColor=none;align=left;verticalAlign=middle;whiteSpace=wrap;rounded=0;fontColor=#E6E6E6;" parent="1" vertex="1">
          <mxGeometry x="15" y="416.88" width="15" height="20" as="geometry" />
        </mxCell>
        <mxCell id="OhocnARGBNXMkphMfaer-31" value="2" style="text;html=1;strokeColor=none;fillColor=none;align=left;verticalAlign=middle;whiteSpace=wrap;rounded=0;fontColor=#E6E6E6;" parent="1" vertex="1">
          <mxGeometry x="15" y="444.38" width="15" height="20" as="geometry" />
        </mxCell>
        <mxCell id="OhocnARGBNXMkphMfaer-32" value="3" style="text;html=1;strokeColor=none;fillColor=none;align=left;verticalAlign=middle;whiteSpace=wrap;rounded=0;fontColor=#E6E6E6;" parent="1" vertex="1">
          <mxGeometry x="15" y="473.38" width="15" height="20" as="geometry" />
        </mxCell>
        <mxCell id="OhocnARGBNXMkphMfaer-33" value="4" style="text;html=1;strokeColor=none;fillColor=none;align=left;verticalAlign=middle;whiteSpace=wrap;rounded=0;fontColor=#E6E6E6;" parent="1" vertex="1">
          <mxGeometry x="15" y="505.63" width="15" height="20" as="geometry" />
        </mxCell>
        <mxCell id="wNTjG9rhsJwIAEXNJy5a-3" value="" style="group" parent="1" vertex="1" connectable="0">
          <mxGeometry x="220" y="540" width="35" height="25" as="geometry" />
        </mxCell>
        <mxCell id="wNTjG9rhsJwIAEXNJy5a-4" value="" style="shape=callout;perimeter=calloutPerimeter;size=10;position=0.3;position2=0.5;base=14;fontFamily=Fira Code;whiteSpace=wrap;fillColor=#99004D;rotation=-180;html=1;" parent="wNTjG9rhsJwIAEXNJy5a-3" vertex="1">
          <mxGeometry x="1" width="34" height="25" as="geometry" />
        </mxCell>
        <mxCell id="wNTjG9rhsJwIAEXNJy5a-5" value="0000" style="text;html=1;strokeColor=none;fillColor=none;align=center;verticalAlign=middle;whiteSpace=wrap;rounded=0;fontFamily=Fira Code;" parent="wNTjG9rhsJwIAEXNJy5a-3" vertex="1">
          <mxGeometry y="10" width="35" height="15" as="geometry" />
        </mxCell>
        <mxCell id="wNTjG9rhsJwIAEXNJy5a-6" value="" style="group" parent="1" vertex="1" connectable="0">
          <mxGeometry x="220" y="610" width="35" height="25" as="geometry" />
        </mxCell>
        <mxCell id="wNTjG9rhsJwIAEXNJy5a-7" value="" style="shape=callout;perimeter=calloutPerimeter;size=10;position=0.3;position2=0.5;base=14;fontFamily=Fira Code;whiteSpace=wrap;fillColor=#99004D;rotation=-180;html=1;" parent="wNTjG9rhsJwIAEXNJy5a-6" vertex="1">
          <mxGeometry x="1" width="34" height="25" as="geometry" />
        </mxCell>
        <mxCell id="wNTjG9rhsJwIAEXNJy5a-8" value="0000" style="text;html=1;strokeColor=none;fillColor=none;align=center;verticalAlign=middle;whiteSpace=wrap;rounded=0;fontFamily=Fira Code;" parent="wNTjG9rhsJwIAEXNJy5a-6" vertex="1">
          <mxGeometry y="10" width="35" height="15" as="geometry" />
        </mxCell>
        <mxCell id="wNTjG9rhsJwIAEXNJy5a-9" value="" style="group" parent="1" vertex="1" connectable="0">
          <mxGeometry x="220" y="750" width="35" height="25" as="geometry" />
        </mxCell>
        <mxCell id="wNTjG9rhsJwIAEXNJy5a-10" value="" style="shape=callout;perimeter=calloutPerimeter;size=10;position=0.3;position2=0.5;base=14;fontFamily=Fira Code;whiteSpace=wrap;fillColor=#99004D;rotation=-180;html=1;" parent="wNTjG9rhsJwIAEXNJy5a-9" vertex="1">
          <mxGeometry x="1" width="34" height="25" as="geometry" />
        </mxCell>
        <mxCell id="wNTjG9rhsJwIAEXNJy5a-11" value="0000" style="text;html=1;strokeColor=none;fillColor=none;align=center;verticalAlign=middle;whiteSpace=wrap;rounded=0;fontFamily=Fira Code;" parent="wNTjG9rhsJwIAEXNJy5a-9" vertex="1">
          <mxGeometry y="10" width="35" height="15" as="geometry" />
        </mxCell>
        <mxCell id="wNTjG9rhsJwIAEXNJy5a-12" value="0000" style="shape=callout;perimeter=calloutPerimeter;size=10;position=0.3;position2=0.5;base=14;fontFamily=Fira Code;html=1;whiteSpace=wrap;fillColor=#99004D;" parent="1" vertex="1">
          <mxGeometry x="220" y="480.63" width="34" height="25" as="geometry" />
        </mxCell>
        <mxCell id="wNTjG9rhsJwIAEXNJy5a-14" value="" style="group" parent="1" vertex="1" connectable="0">
          <mxGeometry x="285" y="460" width="35" height="25" as="geometry" />
        </mxCell>
        <mxCell id="wNTjG9rhsJwIAEXNJy5a-15" value="" style="shape=callout;perimeter=calloutPerimeter;size=10;position=0.3;position2=0.5;base=14;fontFamily=Fira Code;whiteSpace=wrap;fillColor=#99004D;rotation=-180;html=1;" parent="wNTjG9rhsJwIAEXNJy5a-14" vertex="1">
          <mxGeometry x="1" width="34" height="25" as="geometry" />
        </mxCell>
        <mxCell id="wNTjG9rhsJwIAEXNJy5a-16" value="0000" style="text;html=1;strokeColor=none;fillColor=none;align=center;verticalAlign=middle;whiteSpace=wrap;rounded=0;fontFamily=Fira Code;" parent="wNTjG9rhsJwIAEXNJy5a-14" vertex="1">
          <mxGeometry y="10" width="35" height="15" as="geometry" />
        </mxCell>
        <mxCell id="wNTjG9rhsJwIAEXNJy5a-65" value="" style="group" parent="1" vertex="1" connectable="0">
          <mxGeometry x="-270" y="20" width="255" height="350" as="geometry" />
        </mxCell>
        <mxCell id="wNTjG9rhsJwIAEXNJy5a-19" value="" style="rounded=0;whiteSpace=wrap;html=1;fillColor=#003300;strokeColor=#E6E6E6;" parent="wNTjG9rhsJwIAEXNJy5a-65" vertex="1">
          <mxGeometry x="25" width="210" height="320" as="geometry" />
        </mxCell>
        <mxCell id="wNTjG9rhsJwIAEXNJy5a-21" value="+" style="whiteSpace=wrap;html=1;aspect=fixed;fontSize=32;" parent="wNTjG9rhsJwIAEXNJy5a-65" vertex="1">
          <mxGeometry x="80" y="46.25" width="38.75" height="38.75" as="geometry" />
        </mxCell>
        <mxCell id="wNTjG9rhsJwIAEXNJy5a-22" value="" style="shape=or;whiteSpace=wrap;html=1;" parent="wNTjG9rhsJwIAEXNJy5a-65" vertex="1">
          <mxGeometry x="80" y="87.5" width="36.87" height="38.75" as="geometry" />
        </mxCell>
        <mxCell id="wNTjG9rhsJwIAEXNJy5a-23" value="" style="triangle;whiteSpace=wrap;html=1;" parent="wNTjG9rhsJwIAEXNJy5a-65" vertex="1">
          <mxGeometry x="80" y="128.13" width="36.87" height="38.75" as="geometry" />
        </mxCell>
        <mxCell id="wNTjG9rhsJwIAEXNJy5a-24" value="" style="ellipse;whiteSpace=wrap;html=1;aspect=fixed;" parent="wNTjG9rhsJwIAEXNJy5a-65" vertex="1">
          <mxGeometry x="111.87" y="141.26" width="12.5" height="12.5" as="geometry" />
        </mxCell>
        <mxCell id="wNTjG9rhsJwIAEXNJy5a-26" value="LSL" style="whiteSpace=wrap;html=1;aspect=fixed;" parent="wNTjG9rhsJwIAEXNJy5a-65" vertex="1">
          <mxGeometry x="80" y="171.25" width="38.75" height="38.75" as="geometry" />
        </mxCell>
        <mxCell id="wNTjG9rhsJwIAEXNJy5a-32" value="" style="shape=trapezoid;perimeter=trapezoidPerimeter;whiteSpace=wrap;html=1;fixedSize=1;points=[[0,0,0,0,0],[0,0.25,0,0,0],[0,0.5,0,0,0],[0,0.75,0,0,0],[0.19,1,0,0,0],[0.25,0,0,0,0],[0.35,1,0,0,0],[0.5,0,0,0,0],[0.5,1,0,0,0],[0.66,1,0,0,0],[0.75,0,0,0,0],[0.81,1,0,0,0],[1,0,0,0,0],[1,0.25,0,0,0],[1,0.5,0,0,0],[1,0.75,0,0,0]];rotation=90;fillColor=#003366;" parent="wNTjG9rhsJwIAEXNJy5a-65" vertex="1">
          <mxGeometry x="42.5" y="117.5" width="265" height="60" as="geometry" />
        </mxCell>
        <mxCell id="wNTjG9rhsJwIAEXNJy5a-33" style="edgeStyle=orthogonalEdgeStyle;rounded=0;orthogonalLoop=1;jettySize=auto;html=1;exitX=1;exitY=0.5;exitDx=0;exitDy=0;entryX=0.19;entryY=1;entryDx=0;entryDy=0;entryPerimeter=0;strokeColor=#E6E6E6;endArrow=none;endFill=0;" parent="wNTjG9rhsJwIAEXNJy5a-65" source="wNTjG9rhsJwIAEXNJy5a-21" target="wNTjG9rhsJwIAEXNJy5a-32" edge="1">
          <mxGeometry relative="1" as="geometry" />
        </mxCell>
        <mxCell id="wNTjG9rhsJwIAEXNJy5a-34" style="edgeStyle=orthogonalEdgeStyle;rounded=0;orthogonalLoop=1;jettySize=auto;html=1;exitX=1;exitY=0.5;exitDx=0;exitDy=0;exitPerimeter=0;entryX=0.35;entryY=1;entryDx=0;entryDy=0;entryPerimeter=0;strokeColor=#E6E6E6;endArrow=none;endFill=0;" parent="wNTjG9rhsJwIAEXNJy5a-65" source="wNTjG9rhsJwIAEXNJy5a-22" target="wNTjG9rhsJwIAEXNJy5a-32" edge="1">
          <mxGeometry relative="1" as="geometry" />
        </mxCell>
        <mxCell id="wNTjG9rhsJwIAEXNJy5a-35" style="edgeStyle=orthogonalEdgeStyle;rounded=0;orthogonalLoop=1;jettySize=auto;html=1;exitX=1;exitY=0.5;exitDx=0;exitDy=0;entryX=0.5;entryY=1;entryDx=0;entryDy=0;entryPerimeter=0;strokeColor=#E6E6E6;endArrow=none;endFill=0;" parent="wNTjG9rhsJwIAEXNJy5a-65" source="wNTjG9rhsJwIAEXNJy5a-24" target="wNTjG9rhsJwIAEXNJy5a-32" edge="1">
          <mxGeometry relative="1" as="geometry" />
        </mxCell>
        <mxCell id="wNTjG9rhsJwIAEXNJy5a-36" style="edgeStyle=orthogonalEdgeStyle;rounded=0;orthogonalLoop=1;jettySize=auto;html=1;exitX=1;exitY=0.5;exitDx=0;exitDy=0;entryX=0.66;entryY=1;entryDx=0;entryDy=0;entryPerimeter=0;strokeColor=#E6E6E6;endArrow=none;endFill=0;" parent="wNTjG9rhsJwIAEXNJy5a-65" source="wNTjG9rhsJwIAEXNJy5a-26" target="wNTjG9rhsJwIAEXNJy5a-32" edge="1">
          <mxGeometry relative="1" as="geometry" />
        </mxCell>
        <mxCell id="wNTjG9rhsJwIAEXNJy5a-37" value="" style="endArrow=none;html=1;rounded=0;strokeColor=#E6E6E6;" parent="wNTjG9rhsJwIAEXNJy5a-65" edge="1">
          <mxGeometry width="50" height="50" relative="1" as="geometry">
            <mxPoint x="50" y="230" as="sourcePoint" />
            <mxPoint x="50" y="55" as="targetPoint" />
          </mxGeometry>
        </mxCell>
        <mxCell id="wNTjG9rhsJwIAEXNJy5a-38" value="" style="endArrow=none;html=1;rounded=0;entryX=0.81;entryY=1;entryDx=0;entryDy=0;entryPerimeter=0;strokeColor=#E6E6E6;endFill=0;" parent="wNTjG9rhsJwIAEXNJy5a-65" target="wNTjG9rhsJwIAEXNJy5a-32" edge="1">
          <mxGeometry width="50" height="50" relative="1" as="geometry">
            <mxPoint x="50" y="230" as="sourcePoint" />
            <mxPoint x="104.06" y="240" as="targetPoint" />
          </mxGeometry>
        </mxCell>
        <mxCell id="wNTjG9rhsJwIAEXNJy5a-40" value="" style="endArrow=none;html=1;rounded=0;entryX=0.81;entryY=1;entryDx=0;entryDy=0;entryPerimeter=0;startArrow=oval;startFill=1;strokeColor=#E6E6E6;endFill=0;" parent="wNTjG9rhsJwIAEXNJy5a-65" edge="1">
          <mxGeometry width="50" height="50" relative="1" as="geometry">
            <mxPoint x="50" y="55" as="sourcePoint" />
            <mxPoint x="80" y="55.10000000000002" as="targetPoint" />
          </mxGeometry>
        </mxCell>
        <mxCell id="wNTjG9rhsJwIAEXNJy5a-41" value="" style="endArrow=none;html=1;rounded=0;entryX=0.81;entryY=1;entryDx=0;entryDy=0;entryPerimeter=0;startArrow=oval;startFill=1;strokeColor=#E6E6E6;endFill=0;" parent="wNTjG9rhsJwIAEXNJy5a-65" edge="1">
          <mxGeometry width="50" height="50" relative="1" as="geometry">
            <mxPoint x="50" y="100" as="sourcePoint" />
            <mxPoint x="80" y="100.10000000000002" as="targetPoint" />
          </mxGeometry>
        </mxCell>
        <mxCell id="wNTjG9rhsJwIAEXNJy5a-42" value="" style="endArrow=none;html=1;rounded=0;strokeColor=#E6E6E6;" parent="wNTjG9rhsJwIAEXNJy5a-65" edge="1">
          <mxGeometry width="50" height="50" relative="1" as="geometry">
            <mxPoint x="35" y="230" as="sourcePoint" />
            <mxPoint x="35" y="75" as="targetPoint" />
          </mxGeometry>
        </mxCell>
        <mxCell id="wNTjG9rhsJwIAEXNJy5a-43" value="" style="endArrow=none;html=1;rounded=0;entryX=0.81;entryY=1;entryDx=0;entryDy=0;entryPerimeter=0;startArrow=oval;startFill=1;strokeColor=#E6E6E6;endFill=0;" parent="wNTjG9rhsJwIAEXNJy5a-65" edge="1">
          <mxGeometry width="50" height="50" relative="1" as="geometry">
            <mxPoint x="35" y="73" as="sourcePoint" />
            <mxPoint x="80" y="72.60000000000002" as="targetPoint" />
          </mxGeometry>
        </mxCell>
        <mxCell id="wNTjG9rhsJwIAEXNJy5a-44" value="" style="endArrow=none;html=1;rounded=0;entryX=0.81;entryY=1;entryDx=0;entryDy=0;entryPerimeter=0;startArrow=oval;startFill=1;strokeColor=#E6E6E6;endFill=0;" parent="wNTjG9rhsJwIAEXNJy5a-65" edge="1">
          <mxGeometry width="50" height="50" relative="1" as="geometry">
            <mxPoint x="35" y="117.9" as="sourcePoint" />
            <mxPoint x="80" y="117.50000000000003" as="targetPoint" />
          </mxGeometry>
        </mxCell>
        <mxCell id="wNTjG9rhsJwIAEXNJy5a-45" value="" style="endArrow=none;html=1;rounded=0;entryX=0.81;entryY=1;entryDx=0;entryDy=0;entryPerimeter=0;startArrow=oval;startFill=1;strokeColor=#E6E6E6;endFill=0;" parent="wNTjG9rhsJwIAEXNJy5a-65" edge="1">
          <mxGeometry width="50" height="50" relative="1" as="geometry">
            <mxPoint x="35" y="147.71" as="sourcePoint" />
            <mxPoint x="80" y="147.31000000000003" as="targetPoint" />
          </mxGeometry>
        </mxCell>
        <mxCell id="wNTjG9rhsJwIAEXNJy5a-46" value="" style="endArrow=none;html=1;rounded=0;entryX=0.81;entryY=1;entryDx=0;entryDy=0;entryPerimeter=0;startArrow=oval;startFill=1;strokeColor=#E6E6E6;endFill=0;" parent="wNTjG9rhsJwIAEXNJy5a-65" edge="1">
          <mxGeometry width="50" height="50" relative="1" as="geometry">
            <mxPoint x="35" y="190.4" as="sourcePoint" />
            <mxPoint x="80" y="190.00000000000003" as="targetPoint" />
          </mxGeometry>
        </mxCell>
        <mxCell id="wNTjG9rhsJwIAEXNJy5a-47" value="" style="endArrow=none;html=1;rounded=0;strokeColor=#E6E6E6;" parent="wNTjG9rhsJwIAEXNJy5a-65" edge="1">
          <mxGeometry width="50" height="50" relative="1" as="geometry">
            <mxPoint x="5" y="55" as="sourcePoint" />
            <mxPoint x="50" y="55" as="targetPoint" />
          </mxGeometry>
        </mxCell>
        <mxCell id="wNTjG9rhsJwIAEXNJy5a-48" value="" style="endArrow=none;html=1;rounded=0;strokeColor=#E6E6E6;" parent="wNTjG9rhsJwIAEXNJy5a-65" edge="1">
          <mxGeometry width="50" height="50" relative="1" as="geometry">
            <mxPoint x="5" y="230" as="sourcePoint" />
            <mxPoint x="35" y="230" as="targetPoint" />
          </mxGeometry>
        </mxCell>
        <mxCell id="wNTjG9rhsJwIAEXNJy5a-49" value="" style="shape=flexArrow;endArrow=classic;html=1;rounded=0;strokeColor=#E6E6E6;" parent="wNTjG9rhsJwIAEXNJy5a-65" edge="1">
          <mxGeometry width="50" height="50" relative="1" as="geometry">
            <mxPoint x="185" y="330" as="sourcePoint" />
            <mxPoint x="185" y="265.5" as="targetPoint" />
          </mxGeometry>
        </mxCell>
        <mxCell id="wNTjG9rhsJwIAEXNJy5a-50" value="" style="endArrow=none;html=1;rounded=0;strokeColor=#E6E6E6;" parent="wNTjG9rhsJwIAEXNJy5a-65" edge="1">
          <mxGeometry width="50" height="50" relative="1" as="geometry">
            <mxPoint x="175" y="305" as="sourcePoint" />
            <mxPoint x="196" y="291.25" as="targetPoint" />
          </mxGeometry>
        </mxCell>
        <mxCell id="wNTjG9rhsJwIAEXNJy5a-51" value="3bits" style="text;html=1;strokeColor=none;fillColor=none;align=center;verticalAlign=middle;whiteSpace=wrap;rounded=0;fontSize=9;fontColor=#E6E6E6;" parent="wNTjG9rhsJwIAEXNJy5a-65" vertex="1">
          <mxGeometry x="185" y="285" width="40" height="30" as="geometry" />
        </mxCell>
        <mxCell id="wNTjG9rhsJwIAEXNJy5a-53" value="0" style="text;html=1;strokeColor=none;fillColor=none;align=left;verticalAlign=middle;whiteSpace=wrap;rounded=0;fontColor=#E6E6E6;" parent="wNTjG9rhsJwIAEXNJy5a-65" vertex="1">
          <mxGeometry x="145" y="50" width="15" height="30" as="geometry" />
        </mxCell>
        <mxCell id="wNTjG9rhsJwIAEXNJy5a-54" value="1" style="text;html=1;strokeColor=none;fillColor=none;align=left;verticalAlign=middle;whiteSpace=wrap;rounded=0;fontColor=#E6E6E6;" parent="wNTjG9rhsJwIAEXNJy5a-65" vertex="1">
          <mxGeometry x="145" y="91.88" width="15" height="30" as="geometry" />
        </mxCell>
        <mxCell id="wNTjG9rhsJwIAEXNJy5a-55" value="2" style="text;html=1;strokeColor=none;fillColor=none;align=left;verticalAlign=middle;whiteSpace=wrap;rounded=0;fontColor=#E6E6E6;" parent="wNTjG9rhsJwIAEXNJy5a-65" vertex="1">
          <mxGeometry x="145" y="132" width="15" height="30" as="geometry" />
        </mxCell>
        <mxCell id="wNTjG9rhsJwIAEXNJy5a-56" value="3" style="text;html=1;strokeColor=none;fillColor=none;align=left;verticalAlign=middle;whiteSpace=wrap;rounded=0;fontColor=#E6E6E6;" parent="wNTjG9rhsJwIAEXNJy5a-65" vertex="1">
          <mxGeometry x="145" y="171.25" width="15" height="30" as="geometry" />
        </mxCell>
        <mxCell id="wNTjG9rhsJwIAEXNJy5a-57" value="4" style="text;html=1;strokeColor=none;fillColor=none;align=left;verticalAlign=middle;whiteSpace=wrap;rounded=0;fontColor=#E6E6E6;" parent="wNTjG9rhsJwIAEXNJy5a-65" vertex="1">
          <mxGeometry x="145" y="210" width="15" height="30" as="geometry" />
        </mxCell>
        <mxCell id="wNTjG9rhsJwIAEXNJy5a-58" value="A" style="text;html=1;strokeColor=none;fillColor=none;align=center;verticalAlign=middle;whiteSpace=wrap;rounded=0;fontColor=#E6E6E6;" parent="wNTjG9rhsJwIAEXNJy5a-65" vertex="1">
          <mxGeometry y="225" width="20" height="30" as="geometry" />
        </mxCell>
        <mxCell id="wNTjG9rhsJwIAEXNJy5a-59" value="B" style="text;html=1;strokeColor=none;fillColor=none;align=center;verticalAlign=middle;whiteSpace=wrap;rounded=0;fontColor=#E6E6E6;" parent="wNTjG9rhsJwIAEXNJy5a-65" vertex="1">
          <mxGeometry x="5" y="50" width="20" height="30" as="geometry" />
        </mxCell>
        <mxCell id="wNTjG9rhsJwIAEXNJy5a-61" value="s" style="text;html=1;strokeColor=none;fillColor=none;align=left;verticalAlign=middle;whiteSpace=wrap;rounded=0;fontColor=#E6E6E6;" parent="wNTjG9rhsJwIAEXNJy5a-65" vertex="1">
          <mxGeometry x="179.63" y="244" width="15" height="30" as="geometry" />
        </mxCell>
        <mxCell id="wNTjG9rhsJwIAEXNJy5a-62" value="" style="shape=flexArrow;endArrow=classic;html=1;rounded=0;strokeColor=#E6E6E6;" parent="wNTjG9rhsJwIAEXNJy5a-65" edge="1">
          <mxGeometry width="50" height="50" relative="1" as="geometry">
            <mxPoint x="205" y="148" as="sourcePoint" />
            <mxPoint x="255" y="148" as="targetPoint" />
          </mxGeometry>
        </mxCell>
        <mxCell id="wNTjG9rhsJwIAEXNJy5a-63" value="" style="endArrow=none;html=1;rounded=0;strokeColor=#E6E6E6;" parent="wNTjG9rhsJwIAEXNJy5a-65" edge="1">
          <mxGeometry width="50" height="50" relative="1" as="geometry">
            <mxPoint x="210" y="158" as="sourcePoint" />
            <mxPoint x="220" y="138" as="targetPoint" />
          </mxGeometry>
        </mxCell>
        <mxCell id="wNTjG9rhsJwIAEXNJy5a-64" value="16bits" style="text;html=1;strokeColor=none;fillColor=none;align=center;verticalAlign=middle;whiteSpace=wrap;rounded=0;fontSize=9;fontColor=#E6E6E6;" parent="wNTjG9rhsJwIAEXNJy5a-65" vertex="1">
          <mxGeometry x="200" y="150" width="40" height="30" as="geometry" />
        </mxCell>
        <mxCell id="T8nTZsckkJD-K9p1e62R-1" value="" style="edgeStyle=orthogonalEdgeStyle;rounded=0;orthogonalLoop=1;jettySize=auto;html=1;" edge="1" parent="wNTjG9rhsJwIAEXNJy5a-65" source="wNTjG9rhsJwIAEXNJy5a-66" target="wNTjG9rhsJwIAEXNJy5a-61">
          <mxGeometry relative="1" as="geometry" />
        </mxCell>
        <mxCell id="wNTjG9rhsJwIAEXNJy5a-66" value="ALU" style="text;html=1;strokeColor=none;fillColor=none;align=center;verticalAlign=middle;whiteSpace=wrap;rounded=0;fontColor=#E6E6E6;fontSize=27;" parent="wNTjG9rhsJwIAEXNJy5a-65" vertex="1">
          <mxGeometry x="25" y="270" width="90" height="50" as="geometry" />
        </mxCell>
        <mxCell id="wNTjG9rhsJwIAEXNJy5a-60" value="Func" style="text;html=1;strokeColor=none;fillColor=none;align=center;verticalAlign=middle;whiteSpace=wrap;rounded=0;fontColor=#E6E6E6;" parent="wNTjG9rhsJwIAEXNJy5a-65" vertex="1">
          <mxGeometry x="139" y="320" width="40.63" height="30" as="geometry" />
        </mxCell>
        <mxCell id="wNTjG9rhsJwIAEXNJy5a-67" value="" style="group" parent="1" vertex="1" connectable="0">
          <mxGeometry x="220" y="680" width="35" height="25" as="geometry" />
        </mxCell>
        <mxCell id="wNTjG9rhsJwIAEXNJy5a-68" value="" style="shape=callout;perimeter=calloutPerimeter;size=10;position=0.3;position2=0.5;base=14;fontFamily=Fira Code;whiteSpace=wrap;fillColor=#99004D;rotation=-180;html=1;" parent="wNTjG9rhsJwIAEXNJy5a-67" vertex="1">
          <mxGeometry x="1" width="34" height="25" as="geometry" />
        </mxCell>
        <mxCell id="wNTjG9rhsJwIAEXNJy5a-69" value="0000" style="text;html=1;strokeColor=none;fillColor=none;align=center;verticalAlign=middle;whiteSpace=wrap;rounded=0;fontFamily=Fira Code;" parent="wNTjG9rhsJwIAEXNJy5a-67" vertex="1">
          <mxGeometry y="10" width="35" height="15" as="geometry" />
        </mxCell>
        <mxCell id="wNTjG9rhsJwIAEXNJy5a-70" value="" style="rhombus;whiteSpace=wrap;html=1;fillColor=#333333;" parent="1" vertex="1">
          <mxGeometry x="161" y="973" width="15" height="15" as="geometry" />
        </mxCell>
        <mxCell id="wNTjG9rhsJwIAEXNJy5a-71" value="" style="rhombus;whiteSpace=wrap;html=1;fillColor=#00FF00;" parent="1" vertex="1">
          <mxGeometry x="394" y="1077.5" width="15" height="15" as="geometry" />
        </mxCell>
        <mxCell id="wNTjG9rhsJwIAEXNJy5a-72" value="" style="rhombus;whiteSpace=wrap;html=1;fillColor=#333333;" parent="1" vertex="1">
          <mxGeometry x="702" y="1130" width="15" height="15" as="geometry" />
        </mxCell>
        <mxCell id="T8nTZsckkJD-K9p1e62R-2" value="Data" style="text;html=1;strokeColor=none;fillColor=none;align=left;verticalAlign=middle;whiteSpace=wrap;rounded=0;fontColor=#E6E6E6;" vertex="1" parent="1">
          <mxGeometry x="322" y="112.5" width="45" height="15" as="geometry" />
        </mxCell>
      </root>
    </mxGraphModel>
  </diagram>
</mxfile>
